<?xml version="1.0" encoding="utf-8"?>
<!-- Generator: Adobe Illustrator 19.2.0, SVG Export Plug-In . SVG Version: 6.00 Build 0)  -->
<!DOCTYPE svg PUBLIC "-//W3C//DTD SVG 1.1//EN" "http://www.w3.org/Graphics/SVG/1.1/DTD/svg11.dtd" [
	<!ENTITY st0 "fill:#DBD5C8;">
	<!ENTITY st1 "fill:#38638D;">
	<!ENTITY st2 "fill:#D6B67F;">
	<!ENTITY st3 "opacity:0.36;fill:#FFFFFF;">
	<!ENTITY st4 "fill:#666666;">
	<!ENTITY st5 "fill:#3F3F3F;">
	<!ENTITY st6 "fill:#232323;">
]>
<svg version="1.1" id="Layer_1" xmlns="http://www.w3.org/2000/svg" xmlns:xlink="http://www.w3.org/1999/xlink" x="0px" y="0px"
	 viewBox="0 0 252.5 353.6" style="enable-background:new 0 0 252.5 353.6;" xml:space="preserve">
<g>
	<path style="&st0;" d="M233.7,0h-28.2v17.9c0,1.6-1.3,2.9-2.9,2.9h0c-1.6,0-2.9-1.3-2.9-2.9V0h-70.5v18.1c0,1.6-1.3,2.9-2.9,2.9
		c-1.6,0-2.9-1.3-2.9-2.9V0H53.3v18.1c0,1.6-1.3,2.9-2.9,2.9s-2.9-1.3-2.9-2.9V0H18.8C8.5,0,0,8.5,0,18.9v315.8
		c0,10.4,8.5,18.8,18.8,18.8h214.8c10.4,0,18.8-8.5,18.8-18.8V18.9C252.5,8.5,244,0,233.7,0z"/>
	<path style="&st1;" d="M225.1,26.6h-27.4h-5.2h-63.6h-5.2H60.4h-5.2H27.4c-9.4,0-15.1,5.8-15.1,15.1v285.1
		c0,9.4,5.8,15.1,15.1,15.1h197.7c9.4,0,15.1-5.8,15.1-15.1V41.8C240.2,32.4,234.4,26.6,225.1,26.6z"/>
	<g>
		<g>
			<path style="&st2;" d="M205.2,14.8H252C250.1,6.4,242.6,0,233.6,0h-28.4V14.8z"/>
			<path style="&st2;" d="M47.3,0H18.8C9.8,0,2.3,6.4,0.4,14.8h46.9V0z"/>
		</g>
		<g>
			<rect x="53.1" y="0" style="&st2;" width="70.2" height="14.8"/>
			<rect x="129.1" y="0" style="&st2;" width="70.3" height="14.8"/>
		</g>
	</g>
	<g>
		<rect x="55.8" y="3" style="&st3;" width="2.7" height="11.9"/>
		<rect x="60.6" y="3" style="&st3;" width="2.7" height="11.9"/>
		<rect x="65.3" y="3" style="&st3;" width="2.7" height="11.9"/>
		<rect x="70.1" y="3" style="&st3;" width="2.7" height="11.9"/>
		<rect x="74.9" y="3" style="&st3;" width="2.7" height="11.9"/>
		<rect x="79.6" y="3" style="&st3;" width="2.7" height="11.9"/>
		<rect x="84.4" y="3" style="&st3;" width="2.7" height="11.9"/>
		<rect x="89.2" y="3" style="&st3;" width="2.7" height="11.9"/>
		<rect x="93.9" y="3" style="&st3;" width="2.7" height="11.9"/>
		<rect x="98.7" y="3" style="&st3;" width="2.7" height="11.9"/>
		<rect x="103.5" y="3" style="&st3;" width="2.7" height="11.9"/>
		<rect x="108.2" y="3" style="&st3;" width="2.7" height="11.9"/>
		<rect x="113" y="3" style="&st3;" width="2.7" height="11.9"/>
		<rect x="117.8" y="3" style="&st3;" width="2.7" height="11.9"/>
		<rect x="131.8" y="3" style="&st3;" width="2.7" height="11.9"/>
		<rect x="136.5" y="3" style="&st3;" width="2.7" height="11.9"/>
		<rect x="141.3" y="3" style="&st3;" width="2.7" height="11.9"/>
		<rect x="146.1" y="3" style="&st3;" width="2.7" height="11.9"/>
		<rect x="150.8" y="3" style="&st3;" width="2.7" height="11.9"/>
		<rect x="155.6" y="3" style="&st3;" width="2.7" height="11.9"/>
		<rect x="160.4" y="3" style="&st3;" width="2.7" height="11.9"/>
		<rect x="165.1" y="3" style="&st3;" width="2.7" height="11.9"/>
		<rect x="169.9" y="3" style="&st3;" width="2.7" height="11.9"/>
		<rect x="174.6" y="3" style="&st3;" width="2.7" height="11.9"/>
		<rect x="179.4" y="3" style="&st3;" width="2.7" height="11.9"/>
		<rect x="184.2" y="3" style="&st3;" width="2.7" height="11.9"/>
		<rect x="188.9" y="3" style="&st3;" width="2.7" height="11.9"/>
		<rect x="193.7" y="3" style="&st3;" width="2.7" height="11.9"/>
		<rect x="208.1" y="3" style="&st3;" width="2.7" height="11.9"/>
		<rect x="212.8" y="3" style="&st3;" width="2.7" height="11.9"/>
		<rect x="217.6" y="3" style="&st3;" width="2.7" height="11.9"/>
		<rect x="222.4" y="3" style="&st3;" width="2.7" height="11.9"/>
		<rect x="227.1" y="3" style="&st3;" width="2.7" height="11.9"/>
		<rect x="231.9" y="3" style="&st3;" width="2.7" height="11.9"/>
		<rect x="17.9" y="3" style="&st3;" width="2.7" height="11.9"/>
		<rect x="22.7" y="3" style="&st3;" width="2.7" height="11.9"/>
		<rect x="27.5" y="3" style="&st3;" width="2.7" height="11.9"/>
		<rect x="32.2" y="3" style="&st3;" width="2.7" height="11.9"/>
		<rect x="37" y="3" style="&st3;" width="2.7" height="11.9"/>
		<rect x="41.8" y="3" style="&st3;" width="2.7" height="11.9"/>
		<g>
			<path style="&st3;" d="M4.3,12l-0.7,1.4v1.5h2.7v-6C5.6,9.8,4.9,10.8,4.3,12z"/>
		</g>
		<g>
			<path style="&st3;" d="M8.8,3H8.4v0.2C8.5,3.1,8.6,3,8.8,3z"/>
			<path style="&st3;" d="M8.4,6.7v8.1h2.7v-10C10.2,5.4,9.3,6,8.4,6.7z"/>
		</g>
		<path style="&st3;" d="M13.2,3.9v10.9h2.7V3.1C15,3.3,14.1,3.6,13.2,3.9z"/>
		<g>
			<path style="&st3;" d="M246.2,9v5.8h2.7c0-1-0.9-2.8-0.9-2.8C247.5,10.9,246.9,9.9,246.2,9z"/>
		</g>
		<g>
			<path style="&st3;" d="M241.4,4.9v9.9h2.7V6.9C243.3,6.1,242.4,5.5,241.4,4.9z"/>
			<path style="&st3;" d="M244.2,3.3V3h-0.5C243.8,3.1,244,3.2,244.2,3.3z"/>
		</g>
		<path style="&st3;" d="M236.7,3.2v11.7h2.7V4C238.5,3.6,237.6,3.3,236.7,3.2z"/>
	</g>
	<g>
		<rect x="98" y="153.3" style="&st4;" width="56.5" height="56.5"/>
	</g>
	<g>
		<rect x="100.5" y="155.7" style="&st5;" width="51.5" height="51.5"/>
	</g>
	<g>
		<path style="&st6;" d="M119.2,181.2c0,0,0.1,0.2,0.2,0.2c0.2,0.3,0.2,1.7-0.2,2.5c-0.9,1.5-1.9,3.7-1.4,5.8
			c0.5,1.9,2.4,1.6,2.4,1.6s0,4.1,3.4,5.3c4.1,1.4,6.3-1.1,8.7-1.3c2.3-0.2,3.2,0.2,3.2,0.2s-0.2-4.3-1.7-8.9
			c-0.8-2.5-2.7-5.3-4.6-6.9c-3.2-2.8-5.2-2.5-5.2-2.6s0.9-0.5,3.8-0.4c4.1,0.2,7.2-1.4,7.2-3c0-1.5-1.2-1.6-1.9-1.6
			s-1.9,0.2-2.6-0.4s0-1.4,0.2-2.1c0.3-0.7,0.9-1.6,0.6-1.8c-0.4-0.2-3.6,3.9-4.9,3.8c-1.3-0.1-1.7-1.1-1.5-2.1
			c0.1-1,0.6-1.8,0.5-1.9c-0.1-0.1-1.1,0.4-1.8,2.6c-0.3,1-1.5,3.9-1.9,3.1c-0.5-0.9-0.2-3-0.4-3.1c-0.1-0.1-0.8,0.2-1,1.4
			c-0.1,0.6-0.5,3.1-0.7,3.1c-0.3,0-1.1-1.3-1.3-1.3s-0.1,1.7,0.2,2.1c-0.2,0-0.6,0-0.8,0.1c-0.2,0.1,0,0.7,0,0.7s-0.7,0.6-0.6,1.5
			c0.1,0.9,0.4,1.2,0.7,1.5c-1,0.6-1.3,1.5-1.2,1.7c0.1,0.2,0.8-0.3,1.6-0.3c0.3,0,0.7,0.1,0.9,0.2
			C119.1,181,119.2,181.1,119.2,181.2z"/>
	</g>
	<g>
		<path style="&st0;" d="M59.4,43.9c1.6,0,3-1.3,3-3c0-1.5-1.1-2.7-2.6-2.9V26.6h-0.9v11.4c-1.4,0.3-2.4,1.5-2.4,2.9
			C56.4,42.6,57.8,43.9,59.4,43.9z M59.4,39c1.1,0,2,0.9,2,2c0,1.1-0.9,2-2,2c-1.1,0-2-0.9-2-2C57.4,39.9,58.3,39,59.4,39z"/>
		<path style="&st0;" d="M68.3,43.9c1.6,0,3-1.3,3-3c0-1.5-1.1-2.7-2.5-2.9V26.6h-0.9v11.4c-1.4,0.2-2.5,1.4-2.5,2.9
			C65.3,42.6,66.7,43.9,68.3,43.9z M68.3,39c1.1,0,2,0.9,2,2c0,1.1-0.9,2-2,2c-1.1,0-2-0.9-2-2C66.3,39.9,67.2,39,68.3,39z"/>
		<path style="&st0;" d="M77.6,43.9c1.6,0,3-1.3,3-3c0-1.5-1.1-2.7-2.5-2.9V26.6h-0.9v11.4c-1.4,0.2-2.5,1.4-2.5,2.9
			C74.6,42.6,76,43.9,77.6,43.9z M77.6,39c1.1,0,2,0.9,2,2c0,1.1-0.9,2-2,2c-1.1,0-2-0.9-2-2C75.6,39.9,76.5,39,77.6,39z"/>
		<path style="&st0;" d="M86.9,43.9c1.6,0,3-1.3,3-3c0-1.5-1.1-2.7-2.5-2.9V26.6h-0.9v11.4c-1.4,0.2-2.5,1.4-2.5,2.9
			C83.9,42.6,85.2,43.9,86.9,43.9z M86.9,39c1.1,0,2,0.9,2,2c0,1.1-0.9,2-2,2c-1.1,0-2-0.9-2-2C84.9,39.9,85.8,39,86.9,39z"/>
		<path style="&st0;" d="M77.4,89.8V76.7H32.8c-0.2-1.4-1.4-2.5-2.9-2.5c-1.6,0-3,1.3-3,3s1.3,3,3,3c1.5,0,2.7-1.1,2.9-2.5h43.6
			v12.2c-1.4,0.2-2.5,1.4-2.5,2.9c0,1.6,1.3,3,3,3c1.5,0,2.7-1.1,2.9-2.5H144l10.1,10.1H175h18.5c0.2,1.2,1.2,2.2,2.4,2.4v2.6
			c-1.2,0.2-2.2,1.2-2.4,2.4H175h-20.9l-9.8-9.8H79.8c-0.2-1.4-1.4-2.5-2.9-2.5c-1.6,0-3,1.3-3,3s1.3,3,3,3c1.5,0,2.7-1.1,2.9-2.5
			H144l9.8,9.8H175h18.5c0.2,1.4,1.4,2.5,2.9,2.5c0.6,0,1.1-0.2,1.6-0.5l34.3,34.3c-0.3,0.4-0.4,0.9-0.4,1.5c0,1.6,1.3,3,3,3
			c1.6,0,3-1.3,3-3c0-1.6-1.3-3-3-3c-0.7,0-1.4,0.3-1.9,0.7l-34.2-34.2c0.4-0.5,0.7-1.1,0.7-1.8c0-1.5-1.1-2.7-2.5-2.9v-2.6
			c1.4-0.2,2.5-1.4,2.5-2.9c0-0.7-0.3-1.3-0.7-1.8l5.8-5.8c0.5,0.3,1,0.5,1.6,0.5c1.6,0,3-1.3,3-3s-1.3-3-3-3c-1.6,0-3,1.3-3,3
			c0,0.7,0.3,1.4,0.7,1.9l-5.8,5.7c-0.5-0.3-1-0.5-1.6-0.5c-1.5,0-2.7,1.1-2.9,2.5H175h-20.5l-10.1-10.1H79.8
			C79.6,91,78.6,90,77.4,89.8z M29.9,79.1c-1.1,0-2-0.9-2-2c0-1.1,0.9-2,2-2c1.1,0,2,0.9,2,2C31.9,78.2,31,79.1,29.9,79.1z
			 M76.9,94.7c-1.1,0-2-0.9-2-2c0-1.1,0.9-2,2-2c1.1,0,2,0.9,2,2C78.9,93.8,78,94.7,76.9,94.7z M76.9,103.5c-1.1,0-2-0.9-2-2
			c0-1.1,0.9-2,2-2c1.1,0,2,0.9,2,2C78.9,102.6,78,103.5,76.9,103.5z M234.8,147.5c1.1,0,2,0.9,2,2c0,1.1-0.9,2-2,2
			c-1.1,0-2-0.9-2-2C232.7,148.4,233.7,147.5,234.8,147.5z M206,90.7c1.1,0,2,0.9,2,2c0,1.1-0.9,2-2,2c-1.1,0-2-0.9-2-2
			C204,91.6,204.9,90.7,206,90.7z M198.4,111.3c0,1.1-0.9,2-2,2c-1.1,0-2-0.9-2-2c0-1.1,0.9-2,2-2
			C197.5,109.3,198.4,110.2,198.4,111.3z M196.4,100.8c1.1,0,2,0.9,2,2c0,1.1-0.9,2-2,2c-1.1,0-2-0.9-2-2
			C194.4,101.7,195.3,100.8,196.4,100.8z"/>
		<path style="&st0;" d="M68.3,107.6c-1.6,0-3,1.3-3,3s1.3,3,3,3s3-1.3,3-3S69.9,107.6,68.3,107.6z M68.3,112.6c-1.1,0-2-0.9-2-2
			c0-1.1,0.9-2,2-2c1.1,0,2,0.9,2,2C70.3,111.7,69.4,112.6,68.3,112.6z"/>
		<path style="&st0;" d="M59.4,113.5c1.6,0,3-1.3,3-3s-1.3-3-3-3s-3,1.3-3,3c0,0.6,0.2,1.2,0.5,1.6l-5.8,5.8
			c-0.5-0.4-1.1-0.6-1.8-0.6c-1.6,0-3,1.3-3,3s1.3,3,3,3s3-1.3,3-3c0-0.6-0.2-1.2-0.5-1.7l5.7-5.7C58.1,113.3,58.7,113.5,59.4,113.5
			z M49.4,122.3c-1.1,0-2-0.9-2-2c0-1.1,0.9-2,2-2c1.1,0,2,0.9,2,2C51.4,121.4,50.5,122.3,49.4,122.3z M59.4,108.5c1.1,0,2,0.9,2,2
			c0,1.1-0.9,2-2,2c-1.1,0-2-0.9-2-2C57.4,109.4,58.3,108.5,59.4,108.5z"/>
		<path style="&st0;" d="M59.4,98.4c-1.6,0-3,1.3-3,3c0,0.5,0.1,1,0.4,1.4l-5.8,5.8c-0.5-0.3-1-0.5-1.6-0.5c-1.6,0-3,1.3-3,3
			s1.3,3,3,3s3-1.3,3-3c0-0.7-0.2-1.3-0.6-1.8l5.6-5.6c0.5,0.5,1.2,0.8,2,0.8c1.6,0,3-1.3,3-3C62.3,99.8,61,98.4,59.4,98.4z
			 M49.4,113c-1.1,0-2-0.9-2-2c0-1.1,0.9-2,2-2c1.1,0,2,0.9,2,2C51.4,112.1,50.5,113,49.4,113z M59.4,103.4c-1.1,0-2-0.9-2-2
			c0-1.1,0.9-2,2-2c1.1,0,2,0.9,2,2C61.4,102.5,60.5,103.4,59.4,103.4z"/>
		<path style="&st0;" d="M62.3,134.4h11.8c0.2,1.4,1.4,2.5,2.9,2.5c1.6,0,3-1.3,3-3c0-1.6-1.3-3-3-3c-1.5,0-2.7,1.1-2.9,2.5H62.3
			c-0.2-1.4-1.4-2.5-2.9-2.5c-1.6,0-3,1.3-3,3c0,1.6,1.3,3,3,3C60.9,136.9,62.1,135.8,62.3,134.4z M77,131.9c1.1,0,2,0.9,2,2
			c0,1.1-0.9,2-2,2c-1.1,0-2-0.9-2-2C75,132.8,75.9,131.9,77,131.9z M57.4,133.9c0-1.1,0.9-2,2-2c1.1,0,2,0.9,2,2c0,1.1-0.9,2-2,2
			C58.3,136,57.4,135.1,57.4,133.9z"/>
		<path style="&st0;" d="M29.9,95.7c1.6,0,3-1.3,3-3s-1.3-3-3-3c-0.6,0-1.2,0.2-1.7,0.6l-5.7-5.7c0.4-0.5,0.7-1.1,0.7-1.8
			c0-1.6-1.3-3-3-3c-1.6,0-3,1.3-3,3s1.3,3,3,3c0.6,0,1.1-0.2,1.6-0.5l5.7,5.7c-0.3,0.4-0.4,0.8-0.5,1.3H12.3v0.9H27
			C27.2,94.6,28.5,95.7,29.9,95.7z M20.2,84.8c-1.1,0-2-0.9-2-2c0-1.1,0.9-2,2-2c1.1,0,2,0.9,2,2C22.2,83.9,21.3,84.8,20.2,84.8z
			 M29.9,90.7c1.1,0,2,0.9,2,2c0,1.1-0.9,2-2,2c-1.1,0-2-0.9-2-2C27.9,91.6,28.8,90.7,29.9,90.7z"/>
		<path style="&st0;" d="M29.9,114.2c0.6,0,1.1-0.2,1.6-0.5L65.8,148c-0.3,0.4-0.4,0.9-0.4,1.5c0,1.6,1.3,3,3,3s3-1.3,3-3
			c0-1.6-1.3-3-3-3c-0.7,0-1.4,0.3-1.9,0.7l-34.2-34.2c0.4-0.5,0.7-1.1,0.7-1.8c0-1.5-1.1-2.7-2.5-2.9v-2.6c1.4-0.2,2.5-1.4,2.5-2.9
			c0-0.7-0.3-1.3-0.7-1.8l5.8-5.8c0.5,0.3,1,0.5,1.6,0.5c1.6,0,3-1.3,3-3s-1.3-3-3-3s-3,1.3-3,3c0,0.7,0.3,1.4,0.7,1.9l-5.8,5.7
			c-0.5-0.3-1-0.5-1.6-0.5c-1.5,0-2.7,1.1-2.9,2.5H12.3v0.9H27c0.2,1.2,1.2,2.2,2.4,2.4v2.6c-1.2,0.2-2.2,1.2-2.4,2.4H12.3v0.9H27
			C27.2,113.1,28.5,114.2,29.9,114.2z M68.3,147.5c1.1,0,2,0.9,2,2c0,1.1-0.9,2-2,2c-1.1,0-2-0.9-2-2
			C66.3,148.4,67.2,147.5,68.3,147.5z M39.5,90.7c1.1,0,2,0.9,2,2c0,1.1-0.9,2-2,2c-1.1,0-2-0.9-2-2C37.5,91.6,38.4,90.7,39.5,90.7z
			 M27.9,102.8c0-1.1,0.9-2,2-2c1.1,0,2,0.9,2,2c0,1.1-0.9,2-2,2C28.8,104.8,27.9,103.9,27.9,102.8z M29.9,109.3c1.1,0,2,0.9,2,2
			c0,1.1-0.9,2-2,2c-1.1,0-2-0.9-2-2C27.9,110.2,28.8,109.3,29.9,109.3z"/>
		<path style="&st0;" d="M29.9,123.3c0.6,0,1.2-0.2,1.7-0.6l34.2,34.2c-0.3,0.5-0.5,1-0.5,1.6c0,1.6,1.3,3,3,3s3-1.3,3-3
			c0-1.6-1.3-3-3-3c-0.7,0-1.3,0.2-1.8,0.6L32.3,122c0.4-0.5,0.6-1.1,0.6-1.7c0-1.6-1.3-3-3-3c-1.5,0-2.7,1.1-2.9,2.5H12.3v0.9H27
			C27.2,122.2,28.5,123.3,29.9,123.3z M68.3,156.5c1.1,0,2,0.9,2,2c0,1.1-0.9,2-2,2c-1.1,0-2-0.9-2-2
			C66.3,157.4,67.2,156.5,68.3,156.5z M29.9,118.3c1.1,0,2,0.9,2,2c0,1.1-0.9,2-2,2c-1.1,0-2-0.9-2-2
			C27.9,119.2,28.8,118.3,29.9,118.3z"/>
		<path style="&st0;" d="M17.5,154.4v18.6c-1.4,0.2-2.5,1.4-2.5,2.9c0,1.6,1.3,3,3,3s3-1.3,3-3c0-1.5-1.1-2.7-2.5-2.9v-18.6
			c1.4-0.2,2.5-1.4,2.5-2.9c0-1.6-1.3-3-3-3c-1.5,0-2.7,1.1-2.9,2.5h-2.8v0.9H15C15.2,153.2,16.2,154.2,17.5,154.4z M20,175.8
			c0,1.1-0.9,2-2,2s-2-0.9-2-2c0-1.1,0.9-2,2-2S20,174.7,20,175.8z M18,149.4c1.1,0,2,0.9,2,2c0,1.1-0.9,2-2,2s-2-0.9-2-2
			C15.9,150.3,16.8,149.4,18,149.4z"/>
		<path style="&st0;" d="M30,142.6c0-1.6-1.3-3-3-3s-3,1.3-3,3c0,1.5,1.1,2.7,2.5,2.9v27.4c-1.4,0.2-2.5,1.4-2.5,2.9
			c0,1.6,1.3,3,3,3s3-1.3,3-3c0-1.5-1.1-2.7-2.5-2.9v-27.4C28.9,145.3,30,144.1,30,142.6z M29.1,175.8c0,1.1-0.9,2-2,2
			c-1.1,0-2-0.9-2-2c0-1.1,0.9-2,2-2C28.2,173.8,29.1,174.7,29.1,175.8z M27.1,144.6c-1.1,0-2-0.9-2-2c0-1.1,0.9-2,2-2
			c1.1,0,2,0.9,2,2C29.1,143.7,28.2,144.6,27.1,144.6z"/>
		<path style="&st0;" d="M33.2,175.8c0,1.6,1.3,3,3,3s3-1.3,3-3c0-1.5-1.1-2.7-2.5-2.9v-18.6c1.4-0.2,2.5-1.4,2.5-2.9
			c0-1.6-1.3-3-3-3s-3,1.3-3,3c0,1.5,1.1,2.7,2.5,2.9v18.6C34.3,173.2,33.2,174.4,33.2,175.8z M34.2,151.5c0-1.1,0.9-2,2-2
			c1.1,0,2,0.9,2,2c0,1.1-0.9,2-2,2C35.1,153.5,34.2,152.6,34.2,151.5z M36.2,173.8c1.1,0,2,0.9,2,2c0,1.1-0.9,2-2,2
			c-1.1,0-2-0.9-2-2C34.2,174.7,35.1,173.8,36.2,173.8z"/>
		<path style="&st0;" d="M157.1,89.8c-1.6,0-3,1.3-3,3s1.3,3,3,3c1.6,0,3-1.3,3-3S158.7,89.8,157.1,89.8z M157.1,94.7
			c-1.1,0-2-0.9-2-2c0-1.1,0.9-2,2-2c1.1,0,2,0.9,2,2C159.1,93.8,158.2,94.7,157.1,94.7z"/>
		<path style="&st0;" d="M71.2,83.2c0-1.6-1.3-3-3-3s-3,1.3-3,3c0,1.5,1.1,2.7,2.5,2.9v3.7c-1.4,0.2-2.5,1.4-2.5,2.9
			c0,1.6,1.3,3,3,3s3-1.3,3-3c0-1.5-1.1-2.7-2.5-2.9v-3.7C70.2,85.9,71.2,84.7,71.2,83.2z M70.3,92.7c0,1.1-0.9,2-2,2
			c-1.1,0-2-0.9-2-2c0-1.1,0.9-2,2-2C69.4,90.7,70.3,91.6,70.3,92.7z M68.3,85.2c-1.1,0-2-0.9-2-2c0-1.1,0.9-2,2-2c1.1,0,2,0.9,2,2
			C70.3,84.3,69.4,85.2,68.3,85.2z"/>
		<path style="&st0;" d="M56.3,92.7c0,1.6,1.3,3,3,3s3-1.3,3-3c0-1.5-1.1-2.7-2.5-2.9v-3.7c1.4-0.2,2.5-1.4,2.5-2.9c0-1.6-1.3-3-3-3
			s-3,1.3-3,3c0,1.5,1.1,2.7,2.5,2.9v3.7C57.4,90,56.3,91.3,56.3,92.7z M57.3,83.2c0-1.1,0.9-2,2-2c1.1,0,2,0.9,2,2c0,1.1-0.9,2-2,2
			C58.2,85.2,57.3,84.3,57.3,83.2z M59.3,90.7c1.1,0,2,0.9,2,2c0,1.1-0.9,2-2,2c-1.1,0-2-0.9-2-2C57.3,91.6,58.2,90.7,59.3,90.7z"/>
		<path style="&st0;" d="M43.2,54.2c0,1.6,1.3,3,3,3s3-1.3,3-3c0-1.5-1.1-2.7-2.5-2.9V47c1.4-0.2,2.5-1.4,2.5-2.9c0-1.6-1.3-3-3-3
			s-3,1.3-3,3c0,1.5,1.1,2.7,2.5,2.9v4.3C44.3,51.5,43.2,52.7,43.2,54.2z M44.2,44.1c0-1.1,0.9-2,2-2c1.1,0,2,0.9,2,2
			c0,1.1-0.9,2-2,2C45.1,46.1,44.2,45.2,44.2,44.1z M46.2,52.2c1.1,0,2,0.9,2,2c0,1.1-0.9,2-2,2c-1.1,0-2-0.9-2-2
			C44.2,53.1,45.1,52.2,46.2,52.2z"/>
		<path style="&st0;" d="M34.6,54.2c0,1.6,1.3,3,3,3s3-1.3,3-3c0-1.5-1.1-2.7-2.5-2.9V47c1.4-0.2,2.5-1.4,2.5-2.9c0-1.6-1.3-3-3-3
			s-3,1.3-3,3c0,1.5,1.1,2.7,2.5,2.9v4.3C35.7,51.5,34.6,52.7,34.6,54.2z M35.5,44.1c0-1.1,0.9-2,2-2c1.1,0,2,0.9,2,2
			c0,1.1-0.9,2-2,2C36.4,46.1,35.5,45.2,35.5,44.1z M37.5,52.2c1.1,0,2,0.9,2,2c0,1.1-0.9,2-2,2c-1.1,0-2-0.9-2-2
			C35.5,53.1,36.4,52.2,37.5,52.2z"/>
		<path style="&st0;" d="M57.4,68.4c-0.6,0.5-0.9,1.3-0.9,2.2c0,1.6,1.3,3,3,3s3-1.3,3-3s-1.3-3-3-3c-0.4,0-0.8,0.1-1.2,0.3L52,62
			l5.5-5.6c0.5,0.4,1.2,0.7,1.9,0.7c1.5,0,2.7-1.1,2.9-2.5H84c0.2,1.2,1.2,2.2,2.4,2.4v23.2c-1.4,0.2-2.5,1.4-2.5,2.9
			c0,1.6,1.3,3,3,3s3-1.3,3-3c0-1.5-1.1-2.7-2.5-2.9V57.1c1.4-0.2,2.5-1.4,2.5-2.9c0-1.3-0.8-2.4-2-2.8l9.3-9.3V26.6h-0.9v15.1
			l-9.5,9.5c-1.4,0.1-2.5,1.1-2.7,2.5H62.3c-0.2-1.4-1.4-2.5-2.9-2.5c-1.6,0-3,1.3-3,3c0,0.6,0.2,1.1,0.5,1.6l-5.8,5.8H12.3v0.9
			h38.9L57.4,68.4z M59.4,68.6c1.1,0,2,0.9,2,2c0,1.1-0.9,2-2,2c-1.1,0-2-0.9-2-2C57.4,69.5,58.3,68.6,59.4,68.6z M88.9,83.2
			c0,1.1-0.9,2-2,2c-1.1,0-2-0.9-2-2c0-1.1,0.9-2,2-2C88,81.2,88.9,82.1,88.9,83.2z M86.9,52.2c1.1,0,2,0.9,2,2c0,1.1-0.9,2-2,2
			c-1.1,0-2-0.9-2-2C84.9,53.1,85.8,52.2,86.9,52.2z M59.4,52.2c1.1,0,2,0.9,2,2c0,1.1-0.9,2-2,2c-1.1,0-2-0.9-2-2
			C57.4,53.1,58.3,52.2,59.4,52.2z"/>
		<path style="&st0;" d="M92.7,54.2c0,1.5,1.1,2.7,2.5,2.9v23.2c-1.4,0.2-2.5,1.4-2.5,2.9c0,1.6,1.3,3,3,3s3-1.3,3-3
			c0-1.5-1.1-2.7-2.5-2.9V57.1c1.4-0.2,2.5-1.4,2.5-2.9c0-1.3-0.8-2.4-2-2.8l9.3-9.3V26.6h-0.9v15.1l-9.5,9.5
			C93.9,51.4,92.7,52.6,92.7,54.2z M97.6,83.2c0,1.1-0.9,2-2,2c-1.1,0-2-0.9-2-2c0-1.1,0.9-2,2-2C96.7,81.2,97.6,82.1,97.6,83.2z
			 M97.6,54.2c0,1.1-0.9,2-2,2c-1.1,0-2-0.9-2-2c0-1.1,0.9-2,2-2C96.7,52.2,97.6,53.1,97.6,54.2z"/>
		<path style="&st0;" d="M101.5,54.2c0,1.5,1.1,2.7,2.5,2.9v23.2c-1.4,0.2-2.5,1.4-2.5,2.9c0,1.6,1.3,3,3,3s3-1.3,3-3
			c0-1.5-1.1-2.7-2.5-2.9V57.1c1.4-0.2,2.5-1.4,2.5-2.9c0-1.3-0.8-2.4-2-2.8l9.3-9.3V26.6h-0.9v15.1l-9.5,9.5
			C102.7,51.4,101.5,52.6,101.5,54.2z M106.5,83.2c0,1.1-0.9,2-2,2c-1.1,0-2-0.9-2-2c0-1.1,0.9-2,2-2
			C105.6,81.2,106.5,82.1,106.5,83.2z M106.5,54.2c0,1.1-0.9,2-2,2c-1.1,0-2-0.9-2-2c0-1.1,0.9-2,2-2
			C105.6,52.2,106.5,53.1,106.5,54.2z"/>
		<path style="&st0;" d="M110.5,74.1c0,1.6,1.3,3,3,3c1.5,0,2.7-1.1,2.9-2.5H128c0.2,1.4,1.4,2.5,2.9,2.5c1.6,0,3-1.3,3-3
			c0-1.5-1.1-2.7-2.5-2.9V57.1c1.4-0.2,2.5-1.4,2.5-2.9c0-1.6-1.3-3-3-3c-1.5,0-2.7,1.1-2.9,2.5h-2.8c-0.2-1.4-1.4-2.5-2.9-2.5
			c-1.6,0-3,1.3-3,3s1.3,3,3,3c1.5,0,2.7-1.1,2.9-2.5h2.8c0.2,1.2,1.2,2.2,2.4,2.4v14.2c-1.2,0.2-2.2,1.2-2.4,2.4h-11.6
			c-0.2-1.4-1.4-2.5-2.9-2.5C111.9,71.2,110.5,72.5,110.5,74.1z M122.3,56.2c-1.1,0-2-0.9-2-2c0-1.1,0.9-2,2-2c1.1,0,2,0.9,2,2
			C124.3,55.3,123.4,56.2,122.3,56.2z M128.9,54.2c0-1.1,0.9-2,2-2c1.1,0,2,0.9,2,2c0,1.1-0.9,2-2,2
			C129.8,56.2,128.9,55.3,128.9,54.2z M130.9,72.1c1.1,0,2,0.9,2,2c0,1.1-0.9,2-2,2c-1.1,0-2-0.9-2-2
			C128.9,73,129.8,72.1,130.9,72.1z M115.5,74.1c0,1.1-0.9,2-2,2c-1.1,0-2-0.9-2-2c0-1.1,0.9-2,2-2C114.6,72.1,115.5,73,115.5,74.1z
			"/>
		<path style="&st0;" d="M130.9,48.2c1.6,0,3-1.3,3-3c0-1.6-1.3-3-3-3c-1.6,0-3,1.3-3,3C128,46.9,129.3,48.2,130.9,48.2z
			 M130.9,43.3c1.1,0,2,0.9,2,2c0,1.1-0.9,2-2,2c-1.1,0-2-0.9-2-2C128.9,44.2,129.8,43.3,130.9,43.3z"/>
		<path style="&st0;" d="M130.9,37.7c1.6,0,3-1.3,3-3s-1.3-3-3-3c-1.6,0-3,1.3-3,3S129.3,37.7,130.9,37.7z M130.9,32.7
			c1.1,0,2,0.9,2,2c0,1.1-0.9,2-2,2c-1.1,0-2-0.9-2-2C128.9,33.6,129.8,32.7,130.9,32.7z"/>
		<path style="&st0;" d="M157.1,48.3c1.5,0,2.7-1.1,2.9-2.6h15h19.7l19.1-19.1h-1.3l-18.2,18.2H175h-15c-0.3-1.3-1.5-2.4-2.9-2.4
			c-1.6,0-3,1.3-3,3S155.5,48.3,157.1,48.3z M157.1,43.4c1.1,0,2,0.9,2,2c0,1.1-0.9,2-2,2c-1.1,0-2-0.9-2-2
			C155.1,44.3,156,43.4,157.1,43.4z"/>
		<path style="&st0;" d="M157.1,37.7c1.5,0,2.7-1.1,2.9-2.5h15h19.7l8.5-8.5h-1.3l-7.6,7.6H175h-15c-0.2-1.4-1.4-2.5-2.9-2.5
			c-1.6,0-3,1.3-3,3S155.5,37.7,157.1,37.7z M157.1,32.7c1.1,0,2,0.9,2,2c0,1.1-0.9,2-2,2c-1.1,0-2-0.9-2-2
			C155.1,33.6,156,32.7,157.1,32.7z"/>
		<path style="&st0;" d="M136.8,83.2c0,1.6,1.3,3,3,3c1.6,0,3-1.3,3-3c0-1.5-1.1-2.7-2.5-2.9V57.1c1.4-0.2,2.5-1.4,2.5-2.9
			c0-1.6-1.3-3-3-3c-1.6,0-3,1.3-3,3c0,1.5,1.1,2.7,2.5,2.9v23.2C137.8,80.5,136.8,81.7,136.8,83.2z M137.7,54.2c0-1.1,0.9-2,2-2
			c1.1,0,2,0.9,2,2c0,1.1-0.9,2-2,2C138.6,56.2,137.7,55.3,137.7,54.2z M139.7,81.2c1.1,0,2,0.9,2,2c0,1.1-0.9,2-2,2
			c-1.1,0-2-0.9-2-2C137.7,82.1,138.6,81.2,139.7,81.2z"/>
		<path style="&st0;" d="M147.8,57.1v17.3l7.1,7.1c-0.4,0.5-0.6,1.1-0.6,1.8c0,1.6,1.3,3,3,3c1.6,0,3-1.3,3-3c0-1.5-1.1-2.7-2.5-2.9
			V57.2h-0.9v23.1c-0.4,0.1-0.8,0.2-1.2,0.5l-6.8-6.8V57.1c1.4-0.2,2.5-1.4,2.5-2.9c0-1.6-1.3-3-3-3c-1.6,0-3,1.3-3,3
			C145.4,55.6,146.4,56.9,147.8,57.1z M157.2,81.2c1.1,0,2,0.9,2,2c0,1.1-0.9,2-2,2c-1.1,0-2-0.9-2-2
			C155.2,82.1,156.1,81.2,157.2,81.2z M148.3,52.2c1.1,0,2,0.9,2,2c0,1.1-0.9,2-2,2s-2-0.9-2-2C146.3,53.1,147.2,52.2,148.3,52.2z"
			/>
		<path style="&st0;" d="M157.3,51.2c-1.6,0-3,1.3-3,3s1.3,3,3,3c1.6,0,3-1.3,3-3S158.9,51.2,157.3,51.2z M157.3,56.2
			c-1.1,0-2-0.9-2-2c0-1.1,0.9-2,2-2c1.1,0,2,0.9,2,2C159.3,55.3,158.4,56.2,157.3,56.2z"/>
		<path style="&st0;" d="M116.4,83.7H128c0.2,1.4,1.4,2.5,2.9,2.5c1.6,0,3-1.3,3-3s-1.3-3-3-3c-1.5,0-2.7,1.1-2.9,2.5h-11.6
			c-0.2-1.4-1.4-2.5-2.9-2.5c-1.6,0-3,1.3-3,3s1.3,3,3,3C115,86.1,116.2,85.1,116.4,83.7z M130.9,81.2c1.1,0,2,0.9,2,2
			c0,1.1-0.9,2-2,2c-1.1,0-2-0.9-2-2C128.9,82.1,129.8,81.2,130.9,81.2z M111.5,83.2c0-1.1,0.9-2,2-2c1.1,0,2,0.9,2,2
			c0,1.1-0.9,2-2,2C112.4,85.2,111.5,84.3,111.5,83.2z"/>
		<path style="&st0;" d="M156,126.3h-33l-8.8-8.8H89.8c-0.2-1.4-1.4-2.5-2.9-2.5c-1.6,0-3,1.3-3,3s1.3,3,3,3c1.5,0,2.7-1.1,2.9-2.5
			h24.1l8.8,8.8H156c0.2,1.4,1.4,2.5,2.9,2.5c1.6,0,3-1.3,3-3s-1.3-3-3-3C157.4,123.9,156.2,124.9,156,126.3z M86.9,120.1
			c-1.1,0-2-0.9-2-2c0-1.1,0.9-2,2-2c1.1,0,2,0.9,2,2C88.9,119.2,88,120.1,86.9,120.1z M160.9,126.8c0,1.1-0.9,2-2,2s-2-0.9-2-2
			s0.9-2,2-2S160.9,125.7,160.9,126.8z"/>
		<path style="&st0;" d="M225.9,43.9c1.6,0,3-1.3,3-3c0-1.5-1.1-2.7-2.6-2.9V26.6h-0.9v11.4c-1.4,0.3-2.4,1.5-2.4,2.9
			C222.9,42.6,224.2,43.9,225.9,43.9z M225.9,39c1.1,0,2,0.9,2,2c0,1.1-0.9,2-2,2c-1.1,0-2-0.9-2-2C223.9,39.9,224.8,39,225.9,39z"
			/>
		<path style="&st0;" d="M234.8,43.9c1.6,0,3-1.3,3-3c0-1.5-1.1-2.7-2.5-2.9v-8.2c-0.3-0.2-0.6-0.5-0.9-0.7v8.9
			c-1.4,0.2-2.5,1.4-2.5,2.9C231.8,42.6,233.1,43.9,234.8,43.9z M234.8,39c1.1,0,2,0.9,2,2c0,1.1-0.9,2-2,2c-1.1,0-2-0.9-2-2
			C232.7,39.9,233.7,39,234.8,39z"/>
		<path style="&st0;" d="M234.8,113.5c1.6,0,3-1.3,3-3s-1.3-3-3-3c-1.6,0-3,1.3-3,3S233.1,113.5,234.8,113.5z M234.8,108.5
			c1.1,0,2,0.9,2,2c0,1.1-0.9,2-2,2c-1.1,0-2-0.9-2-2C232.7,109.4,233.7,108.5,234.8,108.5z"/>
		<path style="&st0;" d="M225.9,113.5c1.6,0,3-1.3,3-3s-1.3-3-3-3c-1.6,0-3,1.3-3,3c0,0.6,0.2,1.2,0.5,1.6l-5.8,5.8
			c-0.5-0.4-1.1-0.6-1.8-0.6c-1.6,0-3,1.3-3,3s1.3,3,3,3c1.6,0,3-1.3,3-3c0-0.6-0.2-1.2-0.5-1.7l5.7-5.7
			C224.6,113.3,225.2,113.5,225.9,113.5z M215.9,122.3c-1.1,0-2-0.9-2-2c0-1.1,0.9-2,2-2c1.1,0,2,0.9,2,2
			C217.9,121.4,217,122.3,215.9,122.3z M225.9,108.5c1.1,0,2,0.9,2,2c0,1.1-0.9,2-2,2c-1.1,0-2-0.9-2-2
			C223.9,109.4,224.8,108.5,225.9,108.5z"/>
		<path style="&st0;" d="M215.9,108c-1.6,0-3,1.3-3,3s1.3,3,3,3c1.6,0,3-1.3,3-3c0-0.7-0.2-1.3-0.6-1.8l5.6-5.6
			c0.5,0.5,1.2,0.8,2,0.8c1.6,0,3-1.3,3-3c0-1.6-1.3-3-3-3c-1.6,0-3,1.3-3,3c0,0.5,0.1,1,0.4,1.4l-5.8,5.8
			C217,108.2,216.5,108,215.9,108z M225.9,99.4c1.1,0,2,0.9,2,2c0,1.1-0.9,2-2,2c-1.1,0-2-0.9-2-2
			C223.9,100.3,224.8,99.4,225.9,99.4z M215.9,113c-1.1,0-2-0.9-2-2c0-1.1,0.9-2,2-2c1.1,0,2,0.9,2,2C217.9,112.1,217,113,215.9,113
			z"/>
		<path style="&st0;" d="M225.9,131c-1.6,0-3,1.3-3,3c0,1.6,1.3,3,3,3c1.5,0,2.7-1.1,2.9-2.5h11.4v-0.9h-11.4
			C228.5,132.1,227.3,131,225.9,131z M225.9,136c-1.1,0-2-0.9-2-2c0-1.1,0.9-2,2-2c1.1,0,2,0.9,2,2C227.9,135.1,227,136,225.9,136z"
			/>
		<path style="&st0;" d="M175,92.2h-6c-0.2-1.4-1.4-2.5-2.9-2.5c-1.6,0-3,1.3-3,3s1.3,3,3,3c1.5,0,2.7-1.1,2.9-2.5h6h18.5
			c0.2,1.4,1.4,2.5,2.9,2.5c1.6,0,3-1.3,3-3s-1.3-3-3-3c-0.6,0-1.2,0.2-1.7,0.6l-5.7-5.7c0.4-0.5,0.7-1.1,0.7-1.8c0-1.6-1.3-3-3-3
			c-1.6,0-3,1.3-3,3s1.3,3,3,3c0.6,0,1.1-0.2,1.6-0.5L194,91c-0.3,0.4-0.4,0.8-0.5,1.3H175z M166,94.7c-1.1,0-2-0.9-2-2
			c0-1.1,0.9-2,2-2c1.1,0,2,0.9,2,2C168,93.8,167.1,94.7,166,94.7z M186.7,84.8c-1.1,0-2-0.9-2-2c0-1.1,0.9-2,2-2c1.1,0,2,0.9,2,2
			C188.7,83.9,187.8,84.8,186.7,84.8z M196.4,90.7c1.1,0,2,0.9,2,2c0,1.1-0.9,2-2,2c-1.1,0-2-0.9-2-2
			C194.4,91.6,195.3,90.7,196.4,90.7z"/>
		<path style="&st0;" d="M196.4,123.3c0.6,0,1.2-0.2,1.7-0.6l34.2,34.2c-0.3,0.5-0.5,1-0.5,1.6c0,1.6,1.3,3,3,3c1.6,0,3-1.3,3-3
			c0-1.6-1.3-3-3-3c-0.7,0-1.3,0.2-1.8,0.6L198.8,122c0.4-0.5,0.6-1.1,0.6-1.7c0-1.6-1.3-3-3-3c-1.5,0-2.7,1.1-2.9,2.5H175h-20.9
			l-9.8-9.8H79.8c-0.2-1.4-1.4-2.5-2.9-2.5c-1.6,0-3,1.3-3,3s1.3,3,3,3c1.5,0,2.7-1.1,2.9-2.5H144l9.8,9.8H175h18.5
			C193.7,122.2,194.9,123.3,196.4,123.3z M234.8,156.5c1.1,0,2,0.9,2,2c0,1.1-0.9,2-2,2c-1.1,0-2-0.9-2-2
			C232.7,157.4,233.7,156.5,234.8,156.5z M196.4,118.3c1.1,0,2,0.9,2,2c0,1.1-0.9,2-2,2c-1.1,0-2-0.9-2-2
			C194.4,119.2,195.3,118.3,196.4,118.3z M76.9,112.6c-1.1,0-2-0.9-2-2c0-1.1,0.9-2,2-2c1.1,0,2,0.9,2,2
			C78.9,111.7,78,112.6,76.9,112.6z"/>
		<path style="&st0;" d="M194.6,142.6c0-1.6-1.3-3-3-3c-1.6,0-3,1.3-3,3c0,1.5,1.1,2.7,2.5,2.9v27.4c-1.4,0.2-2.5,1.4-2.5,2.9
			c0,1.6,1.3,3,3,3c1.6,0,3-1.3,3-3c0-1.5-1.1-2.7-2.5-2.9v-27.4C193.5,145.3,194.6,144.1,194.6,142.6z M193.7,175.8
			c0,1.1-0.9,2-2,2c-1.1,0-2-0.9-2-2c0-1.1,0.9-2,2-2C192.8,173.8,193.7,174.7,193.7,175.8z M191.7,144.6c-1.1,0-2-0.9-2-2
			c0-1.1,0.9-2,2-2c1.1,0,2,0.9,2,2C193.7,143.7,192.8,144.6,191.7,144.6z"/>
		<path style="&st0;" d="M197.8,175.8c0,1.6,1.3,3,3,3c1.6,0,3-1.3,3-3c0-1.5-1.1-2.7-2.5-2.9v-18.6c1.4-0.2,2.5-1.4,2.5-2.9
			c0-1.6-1.3-3-3-3c-1.6,0-3,1.3-3,3c0,1.5,1.1,2.7,2.5,2.9v18.6C198.9,173.2,197.8,174.4,197.8,175.8z M198.7,151.5
			c0-1.1,0.9-2,2-2c1.1,0,2,0.9,2,2c0,1.1-0.9,2-2,2C199.6,153.5,198.7,152.6,198.7,151.5z M200.8,173.8c1.1,0,2,0.9,2,2
			c0,1.1-0.9,2-2,2c-1.1,0-2-0.9-2-2C198.7,174.7,199.6,173.8,200.8,173.8z"/>
		<path style="&st0;" d="M231.8,92.7c0,1.6,1.3,3,3,3c1.6,0,3-1.3,3-3c0-1.5-1.1-2.7-2.5-2.9v-3.7c1.4-0.2,2.5-1.4,2.5-2.9
			c0-1.6-1.3-3-3-3c-1.6,0-3,1.3-3,3c0,1.5,1.1,2.7,2.5,2.9v3.7C232.9,90,231.8,91.3,231.8,92.7z M232.7,83.2c0-1.1,0.9-2,2-2
			c1.1,0,2,0.9,2,2c0,1.1-0.9,2-2,2C233.7,85.2,232.7,84.3,232.7,83.2z M234.8,90.7c1.1,0,2,0.9,2,2c0,1.1-0.9,2-2,2
			c-1.1,0-2-0.9-2-2C232.7,91.6,233.7,90.7,234.8,90.7z"/>
		<path style="&st0;" d="M222.8,92.7c0,1.6,1.3,3,3,3c1.6,0,3-1.3,3-3c0-1.5-1.1-2.7-2.5-2.9v-3.7c1.4-0.2,2.5-1.4,2.5-2.9
			c0-1.6-1.3-3-3-3c-1.6,0-3,1.3-3,3c0,1.5,1.1,2.7,2.5,2.9v3.7C223.9,90,222.8,91.3,222.8,92.7z M223.8,83.2c0-1.1,0.9-2,2-2
			c1.1,0,2,0.9,2,2c0,1.1-0.9,2-2,2C224.7,85.2,223.8,84.3,223.8,83.2z M225.8,90.7c1.1,0,2,0.9,2,2c0,1.1-0.9,2-2,2
			c-1.1,0-2-0.9-2-2C223.8,91.6,224.7,90.7,225.8,90.7z"/>
		<path style="&st0;" d="M209.7,44.1c0,1.5,1.1,2.7,2.5,2.9v4.3c-1.4,0.2-2.5,1.4-2.5,2.9c0,1.6,1.3,3,3,3c1.6,0,3-1.3,3-3
			c0-1.5-1.1-2.7-2.5-2.9V47c1.4-0.2,2.5-1.4,2.5-2.9c0-1.6-1.3-3-3-3C211,41.1,209.7,42.5,209.7,44.1z M214.7,54.2c0,1.1-0.9,2-2,2
			c-1.1,0-2-0.9-2-2c0-1.1,0.9-2,2-2C213.8,52.2,214.7,53.1,214.7,54.2z M214.7,44.1c0,1.1-0.9,2-2,2c-1.1,0-2-0.9-2-2
			c0-1.1,0.9-2,2-2C213.8,42.1,214.7,43,214.7,44.1z"/>
		<path style="&st0;" d="M201.1,54.2c0,1.6,1.3,3,3,3s3-1.3,3-3c0-1.5-1.1-2.7-2.5-2.9V47c1.4-0.2,2.5-1.4,2.5-2.9c0-1.6-1.3-3-3-3
			s-3,1.3-3,3c0,1.5,1.1,2.7,2.5,2.9v4.3C202.1,51.5,201.1,52.7,201.1,54.2z M202,44.1c0-1.1,0.9-2,2-2c1.1,0,2,0.9,2,2
			c0,1.1-0.9,2-2,2C202.9,46.1,202,45.2,202,44.1z M204,52.2c1.1,0,2,0.9,2,2c0,1.1-0.9,2-2,2c-1.1,0-2-0.9-2-2
			C202,53.1,202.9,52.2,204,52.2z"/>
		<path style="&st0;" d="M175,61.6h-6c-0.2-1.4-1.4-2.5-2.9-2.5c-1.6,0-3,1.3-3,3c0,1.5,1.1,2.7,2.5,2.9v15.4
			c-1.4,0.2-2.5,1.4-2.5,2.9c0,1.6,1.3,3,3,3c1.6,0,3-1.3,3-3c0-1.5-1.1-2.7-2.5-2.9V64.9c1.2-0.2,2.2-1.2,2.4-2.4h6h42.6l6.2,5.9
			c-0.6,0.5-0.9,1.3-0.9,2.2c0,1.6,1.3,3,3,3c1.6,0,3-1.3,3-3s-1.3-3-3-3c-0.4,0-0.8,0.1-1.2,0.3l-6.2-5.9l5.5-5.6
			c0.5,0.4,1.2,0.7,1.9,0.7c1.5,0,2.7-1.1,2.9-2.5h11.4v-0.9h-11.4c-0.2-1.4-1.4-2.5-2.9-2.5c-1.6,0-3,1.3-3,3
			c0,0.6,0.2,1.1,0.5,1.6l-5.8,5.8H175z M168,83.2c0,1.1-0.9,2-2,2c-1.1,0-2-0.9-2-2c0-1.1,0.9-2,2-2C167.1,81.2,168,82.1,168,83.2z
			 M166,64c-1.1,0-2-0.9-2-2c0-1.1,0.9-2,2-2c1.1,0,2,0.9,2,2C168,63.1,167.1,64,166,64z M225.9,68.6c1.1,0,2,0.9,2,2
			c0,1.1-0.9,2-2,2c-1.1,0-2-0.9-2-2C223.9,69.5,224.8,68.6,225.9,68.6z M225.9,52.2c1.1,0,2,0.9,2,2c0,1.1-0.9,2-2,2
			c-1.1,0-2-0.9-2-2C223.9,53.1,224.8,52.2,225.9,52.2z"/>
		<path style="&st0;" d="M240.2,172.9h-2.5c-0.2-1.4-1.4-2.5-2.9-2.5c-1.6,0-3,1.3-3,3c0,1.6,1.3,3,3,3c1.5,0,2.7-1.1,2.9-2.5h2.5
			V172.9z M234.8,175.4c-1.1,0-2-0.9-2-2c0-1.1,0.9-2,2-2c1.1,0,2,0.9,2,2C236.8,174.5,235.9,175.4,234.8,175.4z"/>
		<path style="&st0;" d="M55.5,185l4.5-4.5v-19.1c1.4-0.2,2.5-1.4,2.5-2.9c0-1.6-1.3-3-3-3s-3,1.3-3,3c0,1.5,1.1,2.7,2.5,2.9v18.7
			l-4.2,4.2l-27,27H12.3v0.9h16L55.5,185z M57.5,158.5c0-1.1,0.9-2,2-2c1.1,0,2,0.9,2,2c0,1.1-0.9,2-2,2
			C58.4,160.5,57.5,159.6,57.5,158.5z"/>
		<path style="&st0;" d="M44.6,187.1c0.5,0.3,1,0.5,1.6,0.5c1.6,0,3-1.3,3-3c0-1.6-1.3-3-3-3s-3,1.3-3,3c0,0.7,0.3,1.4,0.7,1.9
			l-16.1,16.1H12.3v0.9h16L44.6,187.1z M46.2,182.6c1.1,0,2,0.9,2,2c0,1.1-0.9,2-2,2c-1.1,0-2-0.9-2-2
			C44.2,183.5,45.1,182.6,46.2,182.6z"/>
		<path style="&st0;" d="M38,185L38,185l7.1-7.2v-33.9l-13-13c0.5-0.5,0.7-1.2,0.7-1.9c0-1.6-1.3-3-3-3s-3,1.3-3,3c0,1.6,1.3,3,3,3
			c0.5,0,1-0.2,1.5-0.4l12.8,12.8v33.1l-6.9,6.9l0.1,0.1l-9.4,9.4H12.3v0.9h16L38,185z M29.9,131c-1.1,0-2-0.9-2-2c0-1.1,0.9-2,2-2
			c1.1,0,2,0.9,2,2C31.9,130.1,31,131,29.9,131z"/>
		<path style="&st0;" d="M68.3,280c1.6,0,3-1.3,3-3s-1.3-3-3-3s-3,1.3-3,3S66.7,280,68.3,280z M68.3,275c1.1,0,2,0.9,2,2
			c0,1.1-0.9,2-2,2c-1.1,0-2-0.9-2-2C66.3,275.9,67.2,275,68.3,275z"/>
		<path style="&st0;" d="M49.4,274.5c-1.6,0-3,1.3-3,3c0,1.6,1.3,3,3,3s3-1.3,3-3c0-0.7-0.2-1.3-0.6-1.8l5.6-5.6
			c0.5,0.5,1.2,0.8,2,0.8c1.6,0,3-1.3,3-3s-1.3-3-3-3s-3,1.3-3,3c0,0.5,0.1,1,0.4,1.4L51,275C50.6,274.7,50,274.5,49.4,274.5z
			 M59.4,265.9c1.1,0,2,0.9,2,2s-0.9,2-2,2c-1.1,0-2-0.9-2-2S58.3,265.9,59.4,265.9z M49.4,279.5c-1.1,0-2-0.9-2-2c0-1.1,0.9-2,2-2
			c1.1,0,2,0.9,2,2C51.4,278.6,50.5,279.5,49.4,279.5z"/>
		<path style="&st0;" d="M49.4,289.7c1.6,0,3-1.3,3-3c0-0.6-0.2-1.2-0.5-1.7l5.7-5.7c0.5,0.4,1.1,0.6,1.8,0.6c1.6,0,3-1.3,3-3
			s-1.3-3-3-3s-3,1.3-3,3c0,0.6,0.2,1.2,0.5,1.6l-5.8,5.8c-0.5-0.4-1.1-0.6-1.8-0.6c-1.6,0-3,1.3-3,3
			C46.5,288.4,47.8,289.7,49.4,289.7z M59.4,275c1.1,0,2,0.9,2,2c0,1.1-0.9,2-2,2c-1.1,0-2-0.9-2-2C57.4,275.9,58.3,275,59.4,275z
			 M49.4,284.8c1.1,0,2,0.9,2,2c0,1.1-0.9,2-2,2c-1.1,0-2-0.9-2-2C47.4,285.7,48.3,284.8,49.4,284.8z"/>
		<path style="&st0;" d="M89.8,285h24.1l8.8,8.8H156c0.2,1.4,1.4,2.5,2.9,2.5c1.6,0,3-1.3,3-3s-1.3-3-3-3c-1.5,0-2.7,1.1-2.9,2.5
			h-33l-8.8-8.8H89.8c-0.2-1.4-1.4-2.5-2.9-2.5c-1.6,0-3,1.3-3,3c0,1.6,1.3,3,3,3C88.3,287.5,89.5,286.4,89.8,285z M158.9,291.3
			c1.1,0,2,0.9,2,2c0,1.1-0.9,2-2,2s-2-0.9-2-2C156.8,292.2,157.7,291.3,158.9,291.3z M84.9,284.5c0-1.1,0.9-2,2-2c1.1,0,2,0.9,2,2
			c0,1.1-0.9,2-2,2C85.8,286.5,84.9,285.6,84.9,284.5z"/>
		<path style="&st0;" d="M62.3,300.9h11.8c0.2,1.4,1.4,2.5,2.9,2.5c1.6,0,3-1.3,3-3c0-1.6-1.3-3-3-3c-1.5,0-2.7,1.1-2.9,2.5H62.3
			c-0.2-1.4-1.4-2.5-2.9-2.5c-1.6,0-3,1.3-3,3c0,1.6,1.3,3,3,3C60.9,303.4,62.1,302.3,62.3,300.9z M77,298.4c1.1,0,2,0.9,2,2
			c0,1.1-0.9,2-2,2c-1.1,0-2-0.9-2-2C75,299.3,75.9,298.4,77,298.4z M57.4,300.4c0-1.1,0.9-2,2-2c1.1,0,2,0.9,2,2c0,1.1-0.9,2-2,2
			C58.3,302.4,57.4,301.5,57.4,300.4z"/>
		<path style="&st0;" d="M96.5,334c-0.6,0-1.1,0.2-1.6,0.5l-5.9-5.9c0.5-0.5,0.8-1.2,0.8-2c0-1.5-1.1-2.7-2.5-2.9v-20.4
			c1.4-0.2,2.5-1.4,2.5-2.9c0-1.6-1.3-3-3-3s-3,1.3-3,3c0,1.5,1.1,2.7,2.5,2.9v20.4c-1.4,0.2-2.5,1.4-2.5,2.9c0,1.6,1.3,3,3,3
			c0.5,0,1-0.2,1.5-0.4l5.9,5.9c-0.4,0.5-0.7,1.2-0.7,1.9c0,1.5,1.1,2.7,2.6,2.9v2.1h0.9v-2.1c1.4-0.3,2.4-1.5,2.4-2.9
			C99.5,335.3,98.1,334,96.5,334z M84.9,300.4c0-1.1,0.9-2,2-2c1.1,0,2,0.9,2,2c0,1.1-0.9,2-2,2C85.8,302.4,84.9,301.5,84.9,300.4z
			 M86.9,328.6c-1.1,0-2-0.9-2-2s0.9-2,2-2c1.1,0,2,0.9,2,2S88,328.6,86.9,328.6z M96.5,339c-1.1,0-2-0.9-2-2c0-1.1,0.9-2,2-2
			c1.1,0,2,0.9,2,2C98.5,338.1,97.6,339,96.5,339z"/>
		<path style="&st0;" d="M86.8,334c-1.5,0-2.7,1.1-2.9,2.5H71.2c-0.2-1.4-1.4-2.5-2.9-2.5c-1.6,0-3,1.3-3,3c0,1.6,1.3,3,3,3
			c1.5,0,2.7-1.1,2.9-2.5h12.7c0.3,1.4,1.5,2.4,2.9,2.4c1.6,0,3-1.3,3-3S88.4,334,86.8,334z M68.3,339c-1.1,0-2-0.9-2-2
			c0-1.1,0.9-2,2-2c1.1,0,2,0.9,2,2C70.3,338.1,69.4,339,68.3,339z M86.8,339c-1.1,0-2-0.9-2-2c0-1.1,0.9-2,2-2c1.1,0,2,0.9,2,2
			C88.8,338.1,87.9,339,86.8,339z"/>
		<path style="&st0;" d="M29.9,262.1c1.6,0,3-1.3,3-3s-1.3-3-3-3c-0.6,0-1.2,0.2-1.7,0.6l-5.7-5.7c0.4-0.5,0.7-1.1,0.7-1.8
			c0-1.6-1.3-3-3-3c-1.6,0-3,1.3-3,3c0,1.6,1.3,3,3,3c0.6,0,1.1-0.2,1.6-0.5l5.7,5.7c-0.3,0.4-0.4,0.8-0.5,1.3H12.3v0.9H27
			C27.2,261.1,28.5,262.1,29.9,262.1z M20.2,251.3c-1.1,0-2-0.9-2-2c0-1.1,0.9-2,2-2c1.1,0,2,0.9,2,2
			C22.2,250.4,21.3,251.3,20.2,251.3z M29.9,257.2c1.1,0,2,0.9,2,2c0,1.1-0.9,2-2,2c-1.1,0-2-0.9-2-2
			C27.9,258.1,28.8,257.2,29.9,257.2z"/>
		<path style="&st0;" d="M29.9,280.7c0.6,0,1.1-0.2,1.6-0.5l34.3,34.3c-0.3,0.4-0.4,0.9-0.4,1.5c0,1.6,1.3,3,3,3s3-1.3,3-3
			c0-1.6-1.3-3-3-3c-0.7,0-1.4,0.3-1.9,0.7l-34.2-34.2c0.4-0.5,0.7-1.1,0.7-1.8c0-1.5-1.1-2.7-2.5-2.9v-2.6c1.4-0.2,2.5-1.4,2.5-2.9
			c0-0.7-0.3-1.3-0.7-1.8l5.8-5.8c0.5,0.3,1,0.5,1.6,0.5c1.6,0,3-1.3,3-3s-1.3-3-3-3s-3,1.3-3,3c0,0.7,0.3,1.4,0.7,1.9l-5.7,5.7
			c-0.5-0.3-1-0.5-1.6-0.5c-1.5,0-2.7,1.1-2.9,2.5H12.3v0.9H27c0.2,1.2,1.2,2.2,2.4,2.4v2.6c-1.2,0.2-2.2,1.2-2.4,2.4H12.3v0.9H27
			C27.2,279.6,28.5,280.7,29.9,280.7z M68.3,314c1.1,0,2,0.9,2,2c0,1.1-0.9,2-2,2c-1.1,0-2-0.9-2-2C66.3,314.9,67.2,314,68.3,314z
			 M39.5,257.2c1.1,0,2,0.9,2,2c0,1.1-0.9,2-2,2c-1.1,0-2-0.9-2-2C37.5,258.1,38.4,257.2,39.5,257.2z M27.9,269.3c0-1.1,0.9-2,2-2
			c1.1,0,2,0.9,2,2s-0.9,2-2,2C28.8,271.3,27.9,270.4,27.9,269.3z M29.9,275.7c1.1,0,2,0.9,2,2c0,1.1-0.9,2-2,2c-1.1,0-2-0.9-2-2
			C27.9,276.6,28.8,275.7,29.9,275.7z"/>
		<path style="&st0;" d="M29.9,289.7c0.6,0,1.2-0.2,1.7-0.6l34.2,34.2c-0.3,0.5-0.5,1-0.5,1.6c0,1.6,1.3,3,3,3s3-1.3,3-3s-1.3-3-3-3
			c-0.7,0-1.3,0.2-1.8,0.6l-34.2-34.2c0.4-0.5,0.6-1.1,0.6-1.7c0-1.6-1.3-3-3-3c-1.5,0-2.7,1.1-2.9,2.5H12.3v0.9H27
			C27.2,288.7,28.5,289.7,29.9,289.7z M68.3,323c1.1,0,2,0.9,2,2c0,1.1-0.9,2-2,2c-1.1,0-2-0.9-2-2C66.3,323.9,67.2,323,68.3,323z
			 M29.9,284.8c1.1,0,2,0.9,2,2c0,1.1-0.9,2-2,2c-1.1,0-2-0.9-2-2C27.9,285.7,28.8,284.8,29.9,284.8z"/>
		<path style="&st0;" d="M59.5,322.1c-1.6,0-3,1.3-3,3c0,1.5,1.1,2.7,2.5,2.9V342h0.9v-14.1c1.4-0.2,2.5-1.4,2.5-2.9
			C62.4,323.4,61.1,322.1,59.5,322.1z M59.5,327c-1.1,0-2-0.9-2-2c0-1.1,0.9-2,2-2c1.1,0,2,0.9,2,2C61.5,326.1,60.6,327,59.5,327z"
			/>
		<path style="&st0;" d="M17,315c-1.5,0-2.7,1.1-2.9,2.5h-1.8v0.9h1.8c0.2,1.2,1.2,2.2,2.4,2.4v17.3c0.3,0.3,0.6,0.6,0.9,0.8v-18.1
			c1.4-0.2,2.5-1.4,2.5-2.9C20,316.3,18.6,315,17,315z M17,319.9c-1.1,0-2-0.9-2-2c0-1.1,0.9-2,2-2s2,0.9,2,2
			C19,319,18.1,319.9,17,319.9z"/>
		<path style="&st0;" d="M25.2,306.1c-1.6,0-3,1.3-3,3c0,1.5,1.1,2.7,2.5,2.9v30h0.9v-30c1.4-0.2,2.5-1.4,2.5-2.9
			C28.1,307.4,26.8,306.1,25.2,306.1z M25.2,311.1c-1.1,0-2-0.9-2-2c0-1.1,0.9-2,2-2c1.1,0,2,0.9,2,2
			C27.2,310.2,26.3,311.1,25.2,311.1z"/>
		<path style="&st0;" d="M34.3,315c-1.6,0-3,1.3-3,3c0,1.5,1.1,2.7,2.5,2.9V342h0.9v-21.1c1.4-0.2,2.5-1.4,2.5-2.9
			C37.2,316.3,35.9,315,34.3,315z M34.3,319.9c-1.1,0-2-0.9-2-2c0-1.1,0.9-2,2-2c1.1,0,2,0.9,2,2C36.3,319,35.4,319.9,34.3,319.9z"
			/>
		<path style="&st0;" d="M32.9,295.5c0-1.6-1.3-3-3-3s-3,1.3-3,3s1.3,3,3,3c0.5,0,1-0.2,1.5-0.4l12.8,12.8V342h0.9v-31.6l-13-13
			C32.6,296.9,32.9,296.2,32.9,295.5z M29.9,297.5c-1.1,0-2-0.9-2-2c0-1.1,0.9-2,2-2c1.1,0,2,0.9,2,2
			C31.9,296.6,31,297.5,29.9,297.5z"/>
		<path style="&st0;" d="M157.1,256.2c-1.6,0-3,1.3-3,3s1.3,3,3,3c1.6,0,3-1.3,3-3S158.7,256.2,157.1,256.2z M157.1,261.2
			c-1.1,0-2-0.9-2-2c0-1.1,0.9-2,2-2c1.1,0,2,0.9,2,2C159.1,260.3,158.2,261.2,157.1,261.2z"/>
		<path style="&st0;" d="M65.3,259.2c0,1.6,1.3,3,3,3s3-1.3,3-3c0-1.5-1.1-2.7-2.5-2.9v-3.7c1.4-0.2,2.5-1.4,2.5-2.9
			c0-1.6-1.3-3-3-3s-3,1.3-3,3c0,1.5,1.1,2.7,2.5,2.9v3.7C66.4,256.5,65.3,257.7,65.3,259.2z M66.3,249.7c0-1.1,0.9-2,2-2
			c1.1,0,2,0.9,2,2c0,1.1-0.9,2-2,2C67.2,251.7,66.3,250.8,66.3,249.7z M68.3,257.2c1.1,0,2,0.9,2,2c0,1.1-0.9,2-2,2
			c-1.1,0-2-0.9-2-2C66.3,258.1,67.2,257.2,68.3,257.2z"/>
		<path style="&st0;" d="M56.3,259.2c0,1.6,1.3,3,3,3s3-1.3,3-3c0-1.5-1.1-2.7-2.5-2.9v-3.7c1.4-0.2,2.5-1.4,2.5-2.9
			c0-1.6-1.3-3-3-3s-3,1.3-3,3c0,1.5,1.1,2.7,2.5,2.9v3.7C57.4,256.5,56.3,257.7,56.3,259.2z M57.3,249.7c0-1.1,0.9-2,2-2
			c1.1,0,2,0.9,2,2c0,1.1-0.9,2-2,2C58.2,251.7,57.3,250.8,57.3,249.7z M59.3,257.2c1.1,0,2,0.9,2,2c0,1.1-0.9,2-2,2
			c-1.1,0-2-0.9-2-2C57.3,258.1,58.2,257.2,59.3,257.2z"/>
		<path style="&st0;" d="M62.3,193.2c0-1.6-1.3-3-3-3s-3,1.3-3,3c0,1.4,1,2.6,2.4,2.9v8.4c-1.4,0.3-2.4,1.5-2.4,2.9c0,1.6,1.3,3,3,3
			s3-1.3,3-3c0-1.5-1.1-2.7-2.6-2.9v-8.4C61.2,195.9,62.3,194.7,62.3,193.2z M61.4,207.4c0,1.1-0.9,2-2,2c-1.1,0-2-0.9-2-2
			c0-1.1,0.9-2,2-2C60.5,205.4,61.4,206.3,61.4,207.4z M59.4,195.2c-1.1,0-2-0.9-2-2c0-1.1,0.9-2,2-2c1.1,0,2,0.9,2,2
			C61.4,194.3,60.5,195.2,59.4,195.2z"/>
		<path style="&st0;" d="M49.1,210.6c0-1.6-1.3-3-3-3s-3,1.3-3,3c0,1.5,1.1,2.7,2.5,2.9v4.3c-1.4,0.2-2.5,1.4-2.5,2.9
			c0,1.6,1.3,3,3,3s3-1.3,3-3c0-1.5-1.1-2.7-2.5-2.9v-4.3C48.1,213.2,49.1,212,49.1,210.6z M48.2,220.6c0,1.1-0.9,2-2,2
			c-1.1,0-2-0.9-2-2c0-1.1,0.9-2,2-2C47.3,218.6,48.2,219.5,48.2,220.6z M46.2,212.6c-1.1,0-2-0.9-2-2c0-1.1,0.9-2,2-2
			c1.1,0,2,0.9,2,2C48.2,211.7,47.3,212.6,46.2,212.6z"/>
		<path style="&st0;" d="M40.5,210.6c0-1.6-1.3-3-3-3s-3,1.3-3,3c0,1.5,1.1,2.7,2.5,2.9v4.3c-1.4,0.2-2.5,1.4-2.5,2.9
			c0,1.6,1.3,3,3,3s3-1.3,3-3c0-1.5-1.1-2.7-2.5-2.9v-4.3C39.4,213.2,40.5,212,40.5,210.6z M39.6,220.6c0,1.1-0.9,2-2,2
			c-1.1,0-2-0.9-2-2c0-1.1,0.9-2,2-2C38.6,218.6,39.6,219.5,39.6,220.6z M37.5,212.6c-1.1,0-2-0.9-2-2c0-1.1,0.9-2,2-2
			c1.1,0,2,0.9,2,2C39.6,211.7,38.6,212.6,37.5,212.6z"/>
		<path style="&st0;" d="M71.2,184.6c0-1.6-1.3-3-3-3s-3,1.3-3,3c0,1.5,1.1,2.7,2.5,2.9v17c-1.4,0.2-2.5,1.4-2.5,2.9
			c0,1.6,1.3,3,3,3s3-1.3,3-3c0-1.5-1.1-2.7-2.5-2.9v-17C70.2,187.3,71.2,186.1,71.2,184.6z M70.3,207.4c0,1.1-0.9,2-2,2
			c-1.1,0-2-0.9-2-2c0-1.1,0.9-2,2-2C69.4,205.4,70.3,206.3,70.3,207.4z M68.3,186.6c-1.1,0-2-0.9-2-2c0-1.1,0.9-2,2-2
			c1.1,0,2,0.9,2,2C70.3,185.7,69.4,186.6,68.3,186.6z"/>
		<path style="&st0;" d="M74.6,207.4c0,1.6,1.3,3,3,3s3-1.3,3-3c0-1.5-1.1-2.7-2.5-2.9v-8.4c1.4-0.2,2.5-1.4,2.5-2.9
			c0-1.6-1.3-3-3-3s-3,1.3-3,3c0,1.5,1.1,2.7,2.5,2.9v8.4C75.7,204.8,74.6,206,74.6,207.4z M75.6,193.2c0-1.1,0.9-2,2-2
			c1.1,0,2,0.9,2,2c0,1.1-0.9,2-2,2C76.5,195.2,75.6,194.3,75.6,193.2z M77.6,205.4c1.1,0,2,0.9,2,2c0,1.1-0.9,2-2,2
			c-1.1,0-2-0.9-2-2C75.6,206.3,76.5,205.4,77.6,205.4z"/>
		<path style="&st0;" d="M57.4,234.9c-0.6,0.5-0.9,1.3-0.9,2.2c0,1.6,1.3,3,3,3s3-1.3,3-3c0-1.6-1.3-3-3-3c-0.4,0-0.8,0.1-1.2,0.3
			l-6.2-5.9l5.5-5.6c0.5,0.4,1.2,0.7,1.9,0.7c1.5,0,2.7-1.1,2.9-2.5H84c0.2,1.2,1.2,2.2,2.4,2.4v23.2c-1.4,0.2-2.5,1.4-2.5,2.9
			c0,1.6,1.3,3,3,3s3-1.3,3-3c0-1.5-1.1-2.7-2.5-2.9v-23.2c1.4-0.2,2.5-1.4,2.5-2.9c0-1.3-0.8-2.4-2-2.8l5.8-5.8v2H99l-3.7,3.7
			c-1.5,0.1-2.7,1.4-2.7,2.9c0,1.5,1.1,2.7,2.5,2.9v23.2c-1.4,0.2-2.5,1.4-2.5,2.9c0,1.6,1.3,3,3,3s3-1.3,3-3c0-1.5-1.1-2.7-2.5-2.9
			v-23.2c1.4-0.2,2.5-1.4,2.5-2.9c0-1.3-0.8-2.4-2-2.8l3.8-3.8h3.6v32.7c-1.4,0.2-2.5,1.4-2.5,2.9c0,1.6,1.3,3,3,3s3-1.3,3-3
			c0-1.5-1.1-2.7-2.5-2.9v-32.7h25.5v23.7c-1.2,0.2-2.2,1.2-2.4,2.4h-11.6c-0.2-1.4-1.4-2.5-2.9-2.5c-1.6,0-3,1.3-3,3
			c0,1.6,1.3,3,3,3c1.5,0,2.7-1.1,2.9-2.5H128c0.2,1.4,1.4,2.5,2.9,2.5c1.6,0,3-1.3,3-3c0-1.5-1.1-2.7-2.5-2.9v-23.7h7.8v32.7
			c-1.4,0.2-2.5,1.4-2.5,2.9c0,1.6,1.3,3,3,3c1.6,0,3-1.3,3-3c0-1.5-1.1-2.7-2.5-2.9v-32.7h7.7v26.8l7.1,7.1
			c-0.4,0.5-0.6,1.1-0.6,1.8c0,1.6,1.3,3,3,3c1.6,0,3-1.3,3-3c0-1.5-1.1-2.7-2.5-2.9v-23.1h-0.9v23.1c-0.4,0.1-0.8,0.2-1.2,0.5
			l-6.8-6.8v-26.4h10v-1.8H175h19.7L222,185l4.5-4.5v-19.1c1.4-0.2,2.5-1.4,2.5-2.9c0-1.6-1.3-3-3-3c-1.6,0-3,1.3-3,3
			c0,1.5,1.1,2.7,2.5,2.9v18.7l-4.2,4.2l-27,27H175h-16.2v-7.7H175h19.7l16.4-16.4c0.5,0.3,1,0.5,1.6,0.5c1.6,0,3-1.3,3-3
			c0-1.6-1.3-3-3-3c-1.6,0-3,1.3-3,3c0,0.7,0.3,1.4,0.7,1.9l-16.1,16.1H175h-16.2v-7.9H175h19.7l9.8-9.8l-0.1-0.1l7.1-7.1v-33.9
			l-13-13c0.5-0.5,0.7-1.2,0.7-1.9c0-1.6-1.3-3-3-3c-1.6,0-3,1.3-3,3c0,1.6,1.3,3,3,3c0.5,0,1-0.2,1.5-0.4l12.8,12.8v33.1l-6.9,6.9
			l0.1,0.1l-9.4,9.4H175h-16.2v-41.9H175h4.7c0.2,1.2,1.2,2.2,2.4,2.4v18.6c-1.4,0.2-2.5,1.4-2.5,2.9c0,1.6,1.3,3,3,3
			c1.6,0,3-1.3,3-3c0-1.5-1.1-2.7-2.5-2.9v-18.6c1.4-0.2,2.5-1.4,2.5-2.9c0-1.6-1.3-3-3-3c-1.5,0-2.7,1.1-2.9,2.5H175h-16.2v-2
			h-26.6v-5.9h39.8c0.2,1.4,1.4,2.5,2.9,2.5c1.6,0,3-1.3,3-3c0-1.6-1.3-3-3-3c-1.5,0-2.7,1.1-2.9,2.5h-20.8v-7.6h20.8
			c0.2,1.4,1.4,2.5,2.9,2.5c1.6,0,3-1.3,3-3c0-1.6-1.3-3-3-3c-1.5,0-2.7,1.1-2.9,2.5h-21.7v8.5h-19.1v6.8h-16.4v-12.2
			c1.2-0.3,2.2-1.5,2.2-2.8c0-1.6-1.3-3-3-3s-3,1.3-3,3c0,1.6,1.2,2.9,2.8,2.9v12.1h-9v-12.1c1.4-0.2,2.5-1.4,2.5-2.9
			c0-1.3-0.9-2.4-2-2.8v-6.4h-43c-0.2-1.4-1.4-2.5-2.9-2.5c-1.6,0-3,1.3-3,3s1.3,3,3,3c1.5,0,2.7-1.1,2.9-2.5h42.1v5.3
			c-1.6,0-2.9,1.3-2.9,2.9c0,1.5,1.1,2.7,2.5,2.9v12.1h-7.8v-12.1c1.4-0.2,2.5-1.4,2.5-2.9c0-1.6-1.3-3-3-3s-3,1.3-3,3
			c0,1.5,1.1,2.7,2.5,2.9v12.1h-1.6v24h-6.3v-36c1.4-0.2,2.5-1.4,2.5-2.9c0-1.6-1.3-3-3-3s-3,1.3-3,3c0,1.5,1.1,2.7,2.5,2.9v36H71.2
			c-0.2-1.4-1.4-2.5-2.9-2.5c-1.6,0-3,1.3-3,3c0,1.6,1.3,3,3,3c1.5,0,2.7-1.1,2.9-2.5h22.5v37l-0.1-0.1l-6.9,6.9
			c-1.4,0.1-2.5,1.1-2.7,2.5H62.3c-0.2-1.4-1.4-2.5-2.9-2.5c-1.6,0-3,1.3-3,3c0,0.6,0.2,1.1,0.5,1.6l-5.8,5.8H12.3v0.9h38.9
			L57.4,234.9z M59.4,235c1.1,0,2,0.9,2,2s-0.9,2-2,2c-1.1,0-2-0.9-2-2S58.3,235,59.4,235z M97.6,249.7c0,1.1-0.9,2-2,2
			c-1.1,0-2-0.9-2-2c0-1.1,0.9-2,2-2C96.7,247.7,97.6,248.6,97.6,249.7z M97.6,220.6c0,1.1-0.9,2-2,2c-1.1,0-2-0.9-2-2
			c0-1.1,0.9-2,2-2C96.7,218.6,97.6,219.5,97.6,220.6z M106.5,249.7c0,1.1-0.9,2-2,2c-1.1,0-2-0.9-2-2c0-1.1,0.9-2,2-2
			C105.6,247.7,106.5,248.6,106.5,249.7z M113.5,242.6c-1.1,0-2-0.9-2-2c0-1.1,0.9-2,2-2c1.1,0,2,0.9,2,2
			C115.5,241.7,114.6,242.6,113.5,242.6z M132.9,240.6c0,1.1-0.9,2-2,2c-1.1,0-2-0.9-2-2c0-1.1,0.9-2,2-2
			C132,238.6,132.9,239.5,132.9,240.6z M141.7,249.7c0,1.1-0.9,2-2,2c-1.1,0-2-0.9-2-2c0-1.1,0.9-2,2-2
			C140.8,247.7,141.7,248.6,141.7,249.7z M157.2,247.7c1.1,0,2,0.9,2,2s-0.9,2-2,2c-1.1,0-2-0.9-2-2S156.1,247.7,157.2,247.7z
			 M223.9,158.5c0-1.1,0.9-2,2-2c1.1,0,2,0.9,2,2c0,1.1-0.9,2-2,2C224.8,160.5,223.9,159.6,223.9,158.5z M212.7,182.6
			c1.1,0,2,0.9,2,2c0,1.1-0.9,2-2,2c-1.1,0-2-0.9-2-2C210.7,183.5,211.6,182.6,212.7,182.6z M196.4,131c-1.1,0-2-0.9-2-2
			c0-1.1,0.9-2,2-2c1.1,0,2,0.9,2,2C198.4,130.1,197.5,131,196.4,131z M184.5,175.8c0,1.1-0.9,2-2,2c-1.1,0-2-0.9-2-2
			c0-1.1,0.9-2,2-2C183.6,173.8,184.5,174.7,184.5,175.8z M182.5,149.4c1.1,0,2,0.9,2,2c0,1.1-0.9,2-2,2c-1.1,0-2-0.9-2-2
			C180.5,150.3,181.4,149.4,182.5,149.4z M175,140.6c1.1,0,2,0.9,2,2c0,1.1-0.9,2-2,2c-1.1,0-2-0.9-2-2
			C173,141.5,173.9,140.6,175,140.6z M175,132.1c1.1,0,2,0.9,2,2c0,1.1-0.9,2-2,2c-1.1,0-2-0.9-2-2C173,133,173.9,132.1,175,132.1z
			 M112,133.9c0-1.1,0.9-2,2-2c1.1,0,2,0.9,2,2c0,1.1-0.9,2-2,2C112.9,136,112,135.1,112,133.9z M59.4,127.3c-1.1,0-2-0.9-2-2
			c0-1.1,0.9-2,2-2c1.1,0,2,0.9,2,2C61.4,126.4,60.5,127.3,59.4,127.3z M102.4,133.9c0-1.1,0.9-2,2-2c1.1,0,2,0.9,2,2
			c0,1.1-0.9,2-2,2C103.3,136,102.4,135.1,102.4,133.9z M93.7,133.9c0-1.1,0.9-2,2-2c1.1,0,2,0.9,2,2c0,1.1-0.9,2-2,2
			C94.6,136,93.7,135.1,93.7,133.9z M68.3,175.4c-1.1,0-2-0.9-2-2c0-1.1,0.9-2,2-2c1.1,0,2,0.9,2,2
			C70.3,174.5,69.4,175.4,68.3,175.4z M84.9,133.9c0-1.1,0.9-2,2-2c1.1,0,2,0.9,2,2c0,1.1-0.9,2-2,2C85.8,136,84.9,135.1,84.9,133.9
			z M94.6,201.8h5.9v-0.9h-5.9v-1.3h5.9v-0.9h-5.9v-1.3h5.9v-0.9h-5.9v-1.3h5.9v-0.9h-5.9V193h5.9V192h-5.9v-1.3h5.9v-0.9h-5.9v-1.3
			h5.9v-0.9h-5.9v-1.3h5.9v-0.9h-5.9v-1.3h5.9v-0.9h-5.9V182h5.9V181h-5.9v-1.3h5.9v-0.9h-5.9v-1.3h5.9v-0.9h-5.9v-1.3h5.9v-0.9
			h-5.9v-1.3h5.9v-0.9h-5.9V171h5.9V170h-5.9v-1.3h5.9v-0.9h-5.9v-1.3h5.9v-0.9h-5.9v-1.3h5.9v-0.9h-5.9v-1.3h5.9v-0.9h-5.9v-11.4
			h11.1v5.9h0.9v-5.9h1.3v5.9h0.9v-5.9h1.3v5.9h0.9v-5.9h1.3v5.9h0.9v-5.9h1.3v5.9h0.9v-5.9h1.3v5.9h0.9v-5.9h1.3v5.9h0.9v-5.9h1.3
			v5.9h0.9v-5.9h1.3v5.9h0.9v-5.9h1.3v5.9h0.9v-5.9h1.3v5.9h0.9v-5.9h1.3v5.9h0.9v-5.9h1.3v5.9h0.9v-5.9h1.3v5.9h0.9v-5.9h1.3v5.9
			h0.9v-5.9h1.3v5.9h0.9v-5.9h1.3v5.9h0.9v-5.9h1.3v5.9h0.9v-5.9h1.3v5.9h0.9v-5.9h11.6v11.4H152v0.9h5.9v1.3H152v0.9h5.9v1.3H152
			v0.9h5.9v1.3H152v0.9h5.9v1.3H152v0.9h5.9v1.3H152v0.9h5.9v1.3H152v0.9h5.9v1.3H152v0.9h5.9v1.3H152v0.9h5.9v1.3H152v0.9h5.9v1.3
			H152v0.9h5.9v1.3H152v0.9h5.9v1.3H152v0.9h5.9v1.3H152v0.9h5.9v1.3H152v0.9h5.9v1.3H152v0.9h5.9v1.3H152v0.9h5.9v1.3H152v0.9h5.9
			v1.3H152v0.9h5.9v11.4h-11.6v-5.9h-0.9v5.9h-1.3v-5.9h-0.9v5.9h-1.3v-5.9h-0.9v5.9h-1.3v-5.9h-0.9v5.9h-1.3v-5.9h-0.9v5.9h-1.3
			v-5.9h-0.9v5.9h-1.3v-5.9h-0.9v5.9h-1.3v-5.9h-0.9v5.9h-1.3v-5.9h-0.9v5.9h-1.3v-5.9h-0.9v5.9h-1.3v-5.9h-0.9v5.9h-1.3v-5.9h-0.9
			v5.9h-1.3v-5.9h-0.9v5.9h-1.3v-5.9h-0.9v5.9h-1.3v-5.9h-0.9v5.9h-1.3v-5.9h-0.9v5.9h-1.3v-5.9h-0.9v5.9h-1.3v-5.9h-0.9v5.9h-1.3
			v-5.9h-0.9v5.9H94.6V201.8z M88.9,249.7c0,1.1-0.9,2-2,2c-1.1,0-2-0.9-2-2c0-1.1,0.9-2,2-2C88,247.7,88.9,248.6,88.9,249.7z
			 M86.9,218.6c1.1,0,2,0.9,2,2c0,1.1-0.9,2-2,2c-1.1,0-2-0.9-2-2C84.9,219.5,85.8,218.6,86.9,218.6z M59.4,218.6c1.1,0,2,0.9,2,2
			c0,1.1-0.9,2-2,2c-1.1,0-2-0.9-2-2C57.4,219.5,58.3,218.6,59.4,218.6z"/>
		<path style="&st0;" d="M154.3,220.6c0,1.6,1.3,3,3,3c1.6,0,3-1.3,3-3c0-1.6-1.3-3-3-3C155.6,217.7,154.3,219,154.3,220.6z
			 M159.3,220.6c0,1.1-0.9,2-2,2c-1.1,0-2-0.9-2-2c0-1.1,0.9-2,2-2C158.4,218.6,159.3,219.5,159.3,220.6z"/>
		<path style="&st0;" d="M130.9,246.7c-1.5,0-2.7,1.1-2.9,2.5h-11.6c-0.2-1.4-1.4-2.5-2.9-2.5c-1.6,0-3,1.3-3,3c0,1.6,1.3,3,3,3
			c1.5,0,2.7-1.1,2.9-2.5H128c0.2,1.4,1.4,2.5,2.9,2.5c1.6,0,3-1.3,3-3C133.9,248,132.6,246.7,130.9,246.7z M113.5,251.7
			c-1.1,0-2-0.9-2-2c0-1.1,0.9-2,2-2c1.1,0,2,0.9,2,2C115.5,250.8,114.6,251.7,113.5,251.7z M130.9,251.7c-1.1,0-2-0.9-2-2
			c0-1.1,0.9-2,2-2c1.1,0,2,0.9,2,2C132.9,250.8,132,251.7,130.9,251.7z"/>
		<path style="&st0;" d="M105.4,334c-0.6,0-1.1,0.2-1.6,0.5l-5.9-5.9c0.5-0.5,0.8-1.2,0.8-2c0-1.5-1.1-2.7-2.5-2.9v-20.4
			c1.4-0.2,2.5-1.4,2.5-2.9c0-1.6-1.3-3-3-3s-3,1.3-3,3c0,1.5,1.1,2.7,2.5,2.9v20.4c-1.4,0.2-2.5,1.4-2.5,2.9c0,1.6,1.3,3,3,3
			c0.5,0,1-0.2,1.5-0.4l5.9,5.9c-0.4,0.5-0.7,1.2-0.7,1.9c0,1.5,1.1,2.7,2.5,2.9v2.1h0.9v-2.1c1.4-0.2,2.5-1.4,2.5-2.9
			C108.3,335.3,107,334,105.4,334z M93.7,300.4c0-1.1,0.9-2,2-2c1.1,0,2,0.9,2,2c0,1.1-0.9,2-2,2C94.6,302.4,93.7,301.5,93.7,300.4z
			 M95.7,328.6c-1.1,0-2-0.9-2-2s0.9-2,2-2c1.1,0,2,0.9,2,2S96.8,328.6,95.7,328.6z M105.4,339c-1.1,0-2-0.9-2-2c0-1.1,0.9-2,2-2
			c1.1,0,2,0.9,2,2C107.4,338.1,106.5,339,105.4,339z"/>
		<path style="&st0;" d="M114.1,334c-0.6,0-1.1,0.2-1.6,0.5l-5.9-5.9c0.5-0.5,0.8-1.2,0.8-2c0-1.5-1.1-2.7-2.5-2.9v-20.4
			c1.4-0.2,2.5-1.4,2.5-2.9c0-1.6-1.3-3-3-3s-3,1.3-3,3c0,1.5,1.1,2.7,2.5,2.9v20.4c-1.4,0.2-2.5,1.4-2.5,2.9c0,1.6,1.3,3,3,3
			c0.5,0,1-0.2,1.5-0.4l5.9,5.9c-0.4,0.5-0.7,1.2-0.7,1.9c0,1.5,1.2,2.8,2.6,2.9v2.1h0.9v-2.1c1.3-0.3,2.3-1.5,2.3-2.9
			C117,335.3,115.7,334,114.1,334z M102.4,300.4c0-1.1,0.9-2,2-2c1.1,0,2,0.9,2,2c0,1.1-0.9,2-2,2
			C103.3,302.4,102.4,301.5,102.4,300.4z M104.4,328.6c-1.1,0-2-0.9-2-2s0.9-2,2-2c1.1,0,2,0.9,2,2S105.5,328.6,104.4,328.6z
			 M114.1,339c-1.1,0-2-0.9-2-2c0-1.1,0.9-2,2-2c1.1,0,2,0.9,2,2C116.1,338.1,115.2,339,114.1,339z"/>
		<path style="&st0;" d="M117,300.4c0-1.6-1.3-3-3-3s-3,1.3-3,3c0,1.5,1.1,2.7,2.5,2.9v20.4c-1.4,0.2-2.5,1.4-2.5,2.9
			c0,1.6,1.3,3,3,3s3-1.3,3-3c0-1.5-1.1-2.7-2.5-2.9v-20.4C115.9,303.1,117,301.9,117,300.4z M116.1,326.6c0,1.1-0.9,2-2,2
			c-1.1,0-2-0.9-2-2s0.9-2,2-2C115.2,324.6,116.1,325.5,116.1,326.6z M114.1,302.4c-1.1,0-2-0.9-2-2c0-1.1,0.9-2,2-2
			c1.1,0,2,0.9,2,2C116.1,301.5,115.2,302.4,114.1,302.4z"/>
		<path style="&st0;" d="M123.2,323.7V301h48.9c0.2,1.4,1.4,2.5,2.9,2.5c1.6,0,3-1.3,3-3s-1.3-3-3-3c-1.5,0-2.7,1.1-2.9,2.5h-49.1
			l-8.8-8.8H62.3c-0.2-1.4-1.4-2.5-2.9-2.5c-1.6,0-3,1.3-3,3s1.3,3,3,3c1.5,0,2.7-1.1,2.9-2.5h51.5l8.5,8.5v23
			c-1.3,0.3-2.4,1.5-2.4,2.9c0,1.6,1.3,3,3,3s3-1.3,3-3C125.8,325.1,124.7,323.9,123.2,323.7z M175,298.5c1.1,0,2,0.9,2,2
			c0,1.1-0.9,2-2,2c-1.1,0-2-0.9-2-2C173,299.4,173.9,298.5,175,298.5z M59.4,293.7c-1.1,0-2-0.9-2-2c0-1.1,0.9-2,2-2
			c1.1,0,2,0.9,2,2C61.4,292.8,60.5,293.7,59.4,293.7z M122.9,328.6c-1.1,0-2-0.9-2-2s0.9-2,2-2c1.1,0,2,0.9,2,2
			S124,328.6,122.9,328.6z"/>
		<path style="&st0;" d="M148.3,323.7c-1.5,0-2.7,1.1-2.9,2.5h-11.5c-0.2-1.4-1.4-2.5-2.9-2.5c-1.6,0-3,1.3-3,3
			c0,1.5,1.1,2.7,2.5,2.9v4.8c-1.4,0.2-2.5,1.4-2.5,2.9c0,1.6,1.3,3,3,3c1.6,0,3-1.3,3-3c0-1.5-1.1-2.7-2.5-2.9v-4.8
			c1.2-0.2,2.2-1.2,2.4-2.4h11.5c0.2,1.4,1.4,2.5,2.9,2.5c1.6,0,3-1.3,3-3S149.9,323.7,148.3,323.7z M132.9,337.2c0,1.1-0.9,2-2,2
			c-1.1,0-2-0.9-2-2c0-1.1,0.9-2,2-2C132,335.2,132.9,336.1,132.9,337.2z M130.9,328.6c-1.1,0-2-0.9-2-2s0.9-2,2-2c1.1,0,2,0.9,2,2
			S132,328.6,130.9,328.6z M148.3,328.6c-1.1,0-2-0.9-2-2s0.9-2,2-2c1.1,0,2,0.9,2,2S149.4,328.6,148.3,328.6z"/>
		<path style="&st0;" d="M157.1,323.7c-1.6,0-3,1.3-3,3s1.3,3,3,3c1.6,0,3-1.3,3-3S158.7,323.7,157.1,323.7z M157.1,328.6
			c-1.1,0-2-0.9-2-2s0.9-2,2-2c1.1,0,2,0.9,2,2S158.2,328.6,157.1,328.6z"/>
		<path style="&st0;" d="M148.3,334c-1.6,0-3,1.3-3,3c0,1.5,1.1,2.7,2.5,2.9v2.1h0.9v-2.1c1.4-0.2,2.4-1.4,2.4-2.9
			C151.2,335.3,149.9,334,148.3,334z M148.3,339c-1.1,0-2-0.9-2-2c0-1.1,0.9-2,2-2c1.1,0,2,0.9,2,2C150.3,338.1,149.4,339,148.3,339
			z"/>
		<path style="&st0;" d="M157.1,334c-1.6,0-3,1.3-3,3c0,1.5,1.1,2.7,2.5,2.9v2.1h0.9v-2.1c1.4-0.2,2.5-1.4,2.5-2.9
			C160,335.3,158.7,334,157.1,334z M157.1,339c-1.1,0-2-0.9-2-2c0-1.1,0.9-2,2-2c1.1,0,2,0.9,2,2C159.1,338.1,158.2,339,157.1,339z"
			/>
		<path style="&st0;" d="M166,323.7c-1.6,0-3,1.3-3,3c0,1.5,1.1,2.7,2.5,2.9V342h0.9v-12.4c1.4-0.2,2.5-1.4,2.5-2.9
			C169,325,167.7,323.7,166,323.7z M166,328.6c-1.1,0-2-0.9-2-2s0.9-2,2-2c1.1,0,2,0.9,2,2S167.1,328.6,166,328.6z"/>
		<path style="&st0;" d="M234.8,280c1.6,0,3-1.3,3-3s-1.3-3-3-3c-1.6,0-3,1.3-3,3S233.1,280,234.8,280z M234.8,275c1.1,0,2,0.9,2,2
			c0,1.1-0.9,2-2,2c-1.1,0-2-0.9-2-2C232.7,275.9,233.7,275,234.8,275z"/>
		<path style="&st0;" d="M215.9,274.5c-1.6,0-3,1.3-3,3c0,1.6,1.3,3,3,3c1.6,0,3-1.3,3-3c0-0.7-0.2-1.3-0.6-1.8l5.6-5.6
			c0.5,0.5,1.2,0.8,2,0.8c1.6,0,3-1.3,3-3s-1.3-3-3-3c-1.6,0-3,1.3-3,3c0,0.5,0.1,1,0.4,1.4l-5.8,5.8
			C217,274.7,216.5,274.5,215.9,274.5z M225.9,265.9c1.1,0,2,0.9,2,2s-0.9,2-2,2c-1.1,0-2-0.9-2-2S224.8,265.9,225.9,265.9z
			 M215.9,279.5c-1.1,0-2-0.9-2-2c0-1.1,0.9-2,2-2c1.1,0,2,0.9,2,2C217.9,278.6,217,279.5,215.9,279.5z"/>
		<path style="&st0;" d="M215.9,289.7c1.6,0,3-1.3,3-3c0-0.6-0.2-1.2-0.5-1.7l5.7-5.7c0.5,0.4,1.1,0.6,1.8,0.6c1.6,0,3-1.3,3-3
			s-1.3-3-3-3c-1.6,0-3,1.3-3,3c0,0.6,0.2,1.2,0.5,1.6l-5.8,5.8c-0.5-0.4-1.1-0.6-1.8-0.6c-1.6,0-3,1.3-3,3
			C212.9,288.4,214.3,289.7,215.9,289.7z M225.9,275c1.1,0,2,0.9,2,2c0,1.1-0.9,2-2,2c-1.1,0-2-0.9-2-2
			C223.9,275.9,224.8,275,225.9,275z M215.9,284.8c1.1,0,2,0.9,2,2c0,1.1-0.9,2-2,2c-1.1,0-2-0.9-2-2
			C213.9,285.7,214.8,284.8,215.9,284.8z"/>
		<path style="&st0;" d="M225.9,288.8c-1.6,0-3,1.3-3,3s1.3,3,3,3c1.4,0,2.6-1,2.9-2.3h11.5v-0.8h-11.4
			C228.7,290,227.4,288.8,225.9,288.8z M225.9,293.7c-1.1,0-2-0.9-2-2c0-1.1,0.9-2,2-2c1.1,0,2,0.9,2,2
			C227.9,292.8,227,293.7,225.9,293.7z"/>
		<path style="&st0;" d="M225.9,297.5c-1.6,0-3,1.3-3,3c0,1.6,1.3,3,3,3c1.5,0,2.7-1.1,2.9-2.5h11.4v-0.9h-11.4
			C228.5,298.5,227.3,297.5,225.9,297.5z M225.9,302.4c-1.1,0-2-0.9-2-2c0-1.1,0.9-2,2-2c1.1,0,2,0.9,2,2
			C227.9,301.5,227,302.4,225.9,302.4z"/>
		<path style="&st0;" d="M175,258.7h-6c-0.2-1.4-1.4-2.5-2.9-2.5c-1.6,0-3,1.3-3,3s1.3,3,3,3c1.5,0,2.7-1.1,2.9-2.5h6h18.5
			c0.2,1.4,1.4,2.5,2.9,2.5c1.6,0,3-1.3,3-3s-1.3-3-3-3c-0.6,0-1.2,0.2-1.7,0.6l-5.7-5.7c0.4-0.5,0.7-1.1,0.7-1.8c0-1.6-1.3-3-3-3
			c-1.6,0-3,1.3-3,3c0,1.6,1.3,3,3,3c0.6,0,1.1-0.2,1.6-0.5l5.7,5.7c-0.3,0.4-0.4,0.8-0.5,1.3H175z M166,261.2c-1.1,0-2-0.9-2-2
			c0-1.1,0.9-2,2-2c1.1,0,2,0.9,2,2C168,260.3,167.1,261.2,166,261.2z M186.7,251.3c-1.1,0-2-0.9-2-2c0-1.1,0.9-2,2-2
			c1.1,0,2,0.9,2,2C188.7,250.4,187.8,251.3,186.7,251.3z M196.4,257.2c1.1,0,2,0.9,2,2c0,1.1-0.9,2-2,2c-1.1,0-2-0.9-2-2
			C194.4,258.1,195.3,257.2,196.4,257.2z"/>
		<path style="&st0;" d="M234.8,313c-0.7,0-1.4,0.3-1.9,0.7l-34.2-34.2c0.4-0.5,0.7-1.1,0.7-1.8c0-1.5-1.1-2.7-2.5-2.9v-2.6
			c1.4-0.2,2.5-1.4,2.5-2.9c0-0.7-0.3-1.3-0.7-1.8l5.8-5.8c0.5,0.3,1,0.5,1.6,0.5c1.6,0,3-1.3,3-3s-1.3-3-3-3c-1.6,0-3,1.3-3,3
			c0,0.7,0.3,1.4,0.7,1.9l-5.7,5.7c-0.5-0.3-1-0.5-1.6-0.5c-1.5,0-2.7,1.1-2.9,2.5H175h-20.5l-10.1-10.1H79.8
			c-0.2-1.2-1.2-2.2-2.4-2.4v-13.2H32.8c-0.2-1.4-1.4-2.5-2.9-2.5c-1.6,0-3,1.3-3,3c0,1.6,1.3,3,3,3c1.5,0,2.7-1.1,2.9-2.5h43.6
			v12.2c-1.4,0.2-2.5,1.4-2.5,2.9c0,1.6,1.3,3,3,3c1.5,0,2.7-1.1,2.9-2.5H144l10.1,10.1H175h18.5c0.2,1.2,1.2,2.2,2.4,2.4v2.6
			c-1.2,0.2-2.2,1.2-2.4,2.4H175h-20.9l-9.8-9.8H79.8c-0.2-1.4-1.4-2.5-2.9-2.5c-1.6,0-3,1.3-3,3c0,1.6,1.3,3,3,3
			c1.5,0,2.7-1.1,2.9-2.5H144l9.8,9.8H175h18.5c0.2,1.4,1.4,2.5,2.9,2.5c0.6,0,1.1-0.2,1.6-0.5l34.3,34.3c-0.3,0.4-0.4,0.9-0.4,1.5
			c0,1.6,1.3,3,3,3c1.6,0,3-1.3,3-3C237.7,314.3,236.4,313,234.8,313z M206,257.2c1.1,0,2,0.9,2,2c0,1.1-0.9,2-2,2c-1.1,0-2-0.9-2-2
			C204,258.1,204.9,257.2,206,257.2z M29.9,245.6c-1.1,0-2-0.9-2-2c0-1.1,0.9-2,2-2c1.1,0,2,0.9,2,2C31.9,244.7,31,245.6,29.9,245.6
			z M76.9,261.2c-1.1,0-2-0.9-2-2c0-1.1,0.9-2,2-2c1.1,0,2,0.9,2,2C78.9,260.3,78,261.2,76.9,261.2z M76.9,270c-1.1,0-2-0.9-2-2
			c0-1.1,0.9-2,2-2c1.1,0,2,0.9,2,2C78.9,269.1,78,270,76.9,270z M194.4,269.3c0-1.1,0.9-2,2-2c1.1,0,2,0.9,2,2s-0.9,2-2,2
			C195.3,271.3,194.4,270.4,194.4,269.3z M196.4,279.7c-1.1,0-2-0.9-2-2c0-1.1,0.9-2,2-2c1.1,0,2,0.9,2,2
			C198.4,278.8,197.5,279.7,196.4,279.7z M234.8,318c-1.1,0-2-0.9-2-2c0-1.1,0.9-2,2-2c1.1,0,2,0.9,2,2
			C236.8,317.1,235.9,318,234.8,318z"/>
		<path style="&st0;" d="M234.8,322.1c-0.7,0-1.3,0.2-1.8,0.6l-34.2-34.2c0.4-0.5,0.6-1.1,0.6-1.7c0-1.6-1.3-3-3-3
			c-1.5,0-2.7,1.1-2.9,2.5H175h-20.9l-9.8-9.8H79.8c-0.2-1.4-1.4-2.5-2.9-2.5c-1.6,0-3,1.3-3,3s1.3,3,3,3c1.5,0,2.7-1.1,2.9-2.5H144
			l9.8,9.8H175h18.5c0.2,1.4,1.4,2.5,2.9,2.5c0.6,0,1.2-0.2,1.7-0.6l34.2,34.2c-0.3,0.5-0.5,1-0.5,1.6c0,1.6,1.3,3,3,3
			c1.6,0,3-1.3,3-3S236.4,322.1,234.8,322.1z M76.9,279c-1.1,0-2-0.9-2-2c0-1.1,0.9-2,2-2c1.1,0,2,0.9,2,2
			C78.9,278.1,78,279,76.9,279z M196.4,288.8c-1.1,0-2-0.9-2-2c0-1.1,0.9-2,2-2c1.1,0,2,0.9,2,2
			C198.4,287.9,197.5,288.8,196.4,288.8z M234.8,327c-1.1,0-2-0.9-2-2c0-1.1,0.9-2,2-2c1.1,0,2,0.9,2,2
			C236.8,326.1,235.9,327,234.8,327z"/>
		<path style="&st0;" d="M225.9,322.1c-1.6,0-3,1.3-3,3c0,1.5,1.1,2.7,2.5,2.9V342h0.9v-14.1c1.4-0.2,2.5-1.4,2.5-2.9
			C228.9,323.4,227.6,322.1,225.9,322.1z M225.9,327c-1.1,0-2-0.9-2-2c0-1.1,0.9-2,2-2c1.1,0,2,0.9,2,2
			C228,326.1,227.1,327,225.9,327z"/>
		<path style="&st0;" d="M182.5,315c-1.5,0-2.7,1.1-2.9,2.5H175h-41.2c-0.2-1.4-1.4-2.5-2.9-2.5c-1.6,0-3,1.3-3,3s1.3,3,3,3
			c1.5,0,2.7-1.1,2.9-2.5H175h4.7c0.2,1.2,1.2,2.2,2.4,2.4l0,21.1l0.9,0l0-21.1c1.4-0.2,2.5-1.4,2.5-2.9
			C185.5,316.3,184.2,315,182.5,315z M130.9,319.9c-1.1,0-2-0.9-2-2c0-1.1,0.9-2,2-2c1.1,0,2,0.9,2,2
			C132.9,319,132,319.9,130.9,319.9z M182.5,319.9c-1.1,0-2-0.9-2-2c0-1.1,0.9-2,2-2c1.1,0,2,0.9,2,2
			C184.5,319,183.6,319.9,182.5,319.9z"/>
		<path style="&st0;" d="M191.7,306.1c-1.6,0-3,1.3-3,3c0,1.5,1.1,2.7,2.5,2.9l0,30h0.9l0-30c1.4-0.2,2.5-1.4,2.5-2.9
			C194.6,307.4,193.3,306.1,191.7,306.1z M191.7,311.1c-1.1,0-2-0.9-2-2c0-1.1,0.9-2,2-2c1.1,0,2,0.9,2,2
			C193.7,310.2,192.8,311.1,191.7,311.1z"/>
		<path style="&st0;" d="M200.8,315c-1.6,0-3,1.3-3,3c0,1.5,1.1,2.7,2.5,2.9V342l0.9,0v-21.1c1.4-0.2,2.5-1.4,2.5-2.9
			C203.7,316.3,202.4,315,200.8,315z M200.8,319.9c-1.1,0-2-0.9-2-2c0-1.1,0.9-2,2-2c1.1,0,2,0.9,2,2
			C202.8,319,201.9,319.9,200.8,319.9z"/>
		<path style="&st0;" d="M199.3,295.5c0-1.6-1.3-3-3-3c-1.6,0-3,1.3-3,3s1.3,3,3,3c0.5,0,1-0.2,1.5-0.4l12.8,12.8V342h0.9v-31.6
			l-13-13C199.1,296.9,199.3,296.2,199.3,295.5z M196.4,297.5c-1.1,0-2-0.9-2-2c0-1.1,0.9-2,2-2c1.1,0,2,0.9,2,2
			C198.4,296.6,197.5,297.5,196.4,297.5z"/>
		<path style="&st0;" d="M196.4,238.8c-1.6,0-3,1.3-3,3c0,1.6,1.3,3,3,3c1.5,0,2.7-1.1,2.9-2.5h40.9v-0.9h-40.9
			C199.1,239.8,197.9,238.8,196.4,238.8z M196.4,243.7c-1.1,0-2-0.9-2-2c0-1.1,0.9-2,2-2c1.1,0,2,0.9,2,2
			C198.4,242.8,197.5,243.7,196.4,243.7z"/>
		<path style="&st0;" d="M231.8,259.2c0,1.6,1.3,3,3,3c1.6,0,3-1.3,3-3c0-1.5-1.1-2.7-2.5-2.9v-3.7c1.4-0.2,2.5-1.4,2.5-2.9
			c0-1.6-1.3-3-3-3c-1.6,0-3,1.3-3,3c0,1.5,1.1,2.7,2.5,2.9v3.7C232.9,256.5,231.8,257.7,231.8,259.2z M232.7,249.7c0-1.1,0.9-2,2-2
			c1.1,0,2,0.9,2,2c0,1.1-0.9,2-2,2C233.7,251.7,232.7,250.8,232.7,249.7z M234.8,257.2c1.1,0,2,0.9,2,2c0,1.1-0.9,2-2,2
			c-1.1,0-2-0.9-2-2C232.7,258.1,233.7,257.2,234.8,257.2z"/>
		<path style="&st0;" d="M222.8,259.2c0,1.6,1.3,3,3,3c1.6,0,3-1.3,3-3c0-1.5-1.1-2.7-2.5-2.9v-3.7c1.4-0.2,2.5-1.4,2.5-2.9
			c0-1.6-1.3-3-3-3c-1.6,0-3,1.3-3,3c0,1.5,1.1,2.7,2.5,2.9v3.7C223.9,256.5,222.8,257.7,222.8,259.2z M223.8,249.7c0-1.1,0.9-2,2-2
			c1.1,0,2,0.9,2,2c0,1.1-0.9,2-2,2C224.7,251.7,223.8,250.8,223.8,249.7z M225.8,257.2c1.1,0,2,0.9,2,2c0,1.1-0.9,2-2,2
			c-1.1,0-2-0.9-2-2C223.8,258.1,224.7,257.2,225.8,257.2z"/>
		<path style="&st0;" d="M228.8,193.2c0-1.6-1.3-3-3-3c-1.6,0-3,1.3-3,3c0,1.4,1,2.6,2.4,2.9v8.4c-1.4,0.3-2.4,1.5-2.4,2.9
			c0,1.6,1.3,3,3,3c1.6,0,3-1.3,3-3c0-1.5-1.1-2.7-2.6-2.9v-8.4C227.7,195.9,228.8,194.7,228.8,193.2z M227.9,207.4c0,1.1-0.9,2-2,2
			c-1.1,0-2-0.9-2-2c0-1.1,0.9-2,2-2C227,205.4,227.9,206.3,227.9,207.4z M225.9,195.2c-1.1,0-2-0.9-2-2c0-1.1,0.9-2,2-2
			c1.1,0,2,0.9,2,2C227.9,194.3,227,195.2,225.9,195.2z"/>
		<path style="&st0;" d="M215.6,210.6c0-1.6-1.3-3-3-3c-1.6,0-3,1.3-3,3c0,1.5,1.1,2.7,2.5,2.9v4.3c-1.4,0.2-2.5,1.4-2.5,2.9
			c0,1.6,1.3,3,3,3c1.6,0,3-1.3,3-3c0-1.5-1.1-2.7-2.5-2.9v-4.3C214.5,213.2,215.6,212,215.6,210.6z M214.7,220.6c0,1.1-0.9,2-2,2
			c-1.1,0-2-0.9-2-2c0-1.1,0.9-2,2-2C213.8,218.6,214.7,219.5,214.7,220.6z M212.7,212.6c-1.1,0-2-0.9-2-2c0-1.1,0.9-2,2-2
			c1.1,0,2,0.9,2,2C214.7,211.7,213.8,212.6,212.7,212.6z"/>
		<path style="&st0;" d="M207,210.6c0-1.6-1.3-3-3-3s-3,1.3-3,3c0,1.5,1.1,2.7,2.5,2.9v4.3c-1.4,0.2-2.5,1.4-2.5,2.9
			c0,1.6,1.3,3,3,3s3-1.3,3-3c0-1.5-1.1-2.7-2.5-2.9v-4.3C205.9,213.2,207,212,207,210.6z M206,220.6c0,1.1-0.9,2-2,2
			c-1.1,0-2-0.9-2-2c0-1.1,0.9-2,2-2C205.1,218.6,206,219.5,206,220.6z M204,212.6c-1.1,0-2-0.9-2-2c0-1.1,0.9-2,2-2
			c1.1,0,2,0.9,2,2C206,211.7,205.1,212.6,204,212.6z"/>
		<path style="&st0;" d="M237.7,184.6c0-1.6-1.3-3-3-3c-1.6,0-3,1.3-3,3c0,1.5,1.1,2.7,2.5,2.9v17c-1.4,0.2-2.5,1.4-2.5,2.9
			c0,1.6,1.3,3,3,3c1.6,0,3-1.3,3-3c0-1.5-1.1-2.7-2.5-2.9v-17C236.6,187.3,237.7,186.1,237.7,184.6z M236.8,207.4c0,1.1-0.9,2-2,2
			c-1.1,0-2-0.9-2-2c0-1.1,0.9-2,2-2C235.9,205.4,236.8,206.3,236.8,207.4z M234.8,186.6c-1.1,0-2-0.9-2-2c0-1.1,0.9-2,2-2
			c1.1,0,2,0.9,2,2C236.8,185.7,235.9,186.6,234.8,186.6z"/>
		<path style="&st0;" d="M175,306.1c-1.5,0-2.7,1.1-2.9,2.5h-38.2c-0.2-1.4-1.4-2.5-2.9-2.5c-1.6,0-3,1.3-3,3s1.3,3,3,3
			c1.5,0,2.7-1.1,2.9-2.5h38.2c0.2,1.4,1.4,2.5,2.9,2.5c1.6,0,3-1.3,3-3S176.6,306.1,175,306.1z M130.9,311.1c-1.1,0-2-0.9-2-2
			c0-1.1,0.9-2,2-2c1.1,0,2,0.9,2,2C132.9,310.2,132,311.1,130.9,311.1z M175,311.1c-1.1,0-2-0.9-2-2c0-1.1,0.9-2,2-2
			c1.1,0,2,0.9,2,2C177,310.2,176.1,311.1,175,311.1z"/>
		<path style="&st0;" d="M228.8,220.2c-0.2-1.4-1.4-2.5-2.9-2.5c-1.6,0-3,1.3-3,3c0,0.6,0.2,1.1,0.5,1.6l-5.8,5.8H175h-6
			c-0.2-1.4-1.4-2.5-2.9-2.5c-1.6,0-3,1.3-3,3c0,1.5,1.1,2.7,2.5,2.9v15.4c-1.4,0.2-2.5,1.4-2.5,2.9c0,1.6,1.3,3,3,3
			c1.6,0,3-1.3,3-3c0-1.5-1.1-2.7-2.5-2.9v-15.4c1.2-0.2,2.2-1.2,2.4-2.4h6h42.6l6.2,5.9c-0.6,0.5-0.9,1.3-0.9,2.2c0,1.6,1.3,3,3,3
			c1.6,0,3-1.3,3-3c0-1.6-1.3-3-3-3c-0.4,0-0.8,0.1-1.2,0.3l-6.2-5.9l5.5-5.6c0.5,0.4,1.2,0.7,1.9,0.7c1.5,0,2.7-1.1,2.9-2.5h11.5
			v-0.9H228.8z M168,249.7c0,1.1-0.9,2-2,2c-1.1,0-2-0.9-2-2s0.9-2,2-2C167.1,247.7,168,248.6,168,249.7z M166,230.5
			c-1.1,0-2-0.9-2-2c0-1.1,0.9-2,2-2c1.1,0,2,0.9,2,2C168,229.6,167.1,230.5,166,230.5z M225.9,235c1.1,0,2,0.9,2,2s-0.9,2-2,2
			c-1.1,0-2-0.9-2-2S224.8,235,225.9,235z M225.9,222.7c-1.1,0-2-0.9-2-2c0-1.1,0.9-2,2-2c1.1,0,2,0.9,2,2
			C227.9,221.8,227,222.7,225.9,222.7z"/>
		<path style="&st0;" d="M240.2,124.8h-11.4c-0.2-1.4-1.4-2.5-2.9-2.5c-1.6,0-3,1.3-3,3s1.3,3,3,3c1.5,0,2.7-1.1,2.9-2.5h11.4V124.8
			z M225.9,127.3c-1.1,0-2-0.9-2-2c0-1.1,0.9-2,2-2c1.1,0,2,0.9,2,2C227.9,126.4,227,127.3,225.9,127.3z"/>
		<path style="&st0;" d="M240.2,74.8h-40.9c-0.2-1.4-1.4-2.5-2.9-2.5c-1.6,0-3,1.3-3,3s1.3,3,3,3c1.5,0,2.7-1.1,2.9-2.5h40.9V74.8z
			 M196.4,77.2c-1.1,0-2-0.9-2-2c0-1.1,0.9-2,2-2c1.1,0,2,0.9,2,2C198.4,76.3,197.5,77.2,196.4,77.2z"/>
		<polygon style="&st0;" points="46,26.6 27.8,44.8 12.3,44.8 12.3,45.7 28.2,45.7 47.3,26.6 		"/>
		<path style="&st0;" d="M13.1,36.1c-0.1,0.3-0.2,0.6-0.3,0.9h15.4l10.4-10.4h-1.3l-9.5,9.5H13.1z"/>
	</g>
	<g>
		<g>
			<path d="M130.4,171.4c-0.2,0.4-0.2,0.8,0.2,1.1c0.7,0.5,1.9,0.4,2.6,0.4c0.6,0,1.6,0,1.8,1c0-0.1,0.1-0.3,0.1-0.4
				c0-1.5-1.2-1.6-1.9-1.6c-0.7,0-1.9,0.2-2.6-0.4C130.5,171.5,130.4,171.5,130.4,171.4z"/>
		</g>
		<g>
			<path d="M133.8,186.5c-0.8-2.5-2.7-5.3-4.6-6.9c-1.3-1.1-2.4-1.8-3.2-2.1c-0.6-0.2-1.1-0.4-1.9-0.5c0,0.5,0,0.9,0,0.9
				c0,0.1,1.9-0.2,5.2,2.6c1.9,1.6,3.8,4.4,4.6,6.9c1.1,3.3,1.5,6.4,1.6,8c0,0,0.1,0,0.1,0S135.3,191.2,133.8,186.5z"/>
		</g>
		<g>
			<path d="M119.6,182.8c0,0.4-0.1,0.8-0.3,1.1c-0.8,1.3-1.7,3.2-1.5,5c0.1-1.5,0.8-3,1.5-4.1C119.6,184.3,119.6,183.3,119.6,182.8z
				"/>
		</g>
		<g>
			<path d="M125,170.3c0,0,0,0.1,0,0.1c-0.1,1,0.2,2.1,1.5,2.1c1.1,0.1,3.8-3.2,4.7-3.8c0.2-0.5,0.5-0.9,0.2-1
				c-0.4-0.2-3.6,3.9-4.9,3.8C125.6,171.5,125.1,171,125,170.3z"/>
		</g>
		<g>
			<path d="M116.9,180.9c0.2-0.2,0.5-0.5,0.9-0.7c0-0.3,0-0.8,0-0.9c-0.2,0.1-0.3,0.2-0.5,0.3c-0.6,0.5-0.8,1.2-0.7,1.3
				C116.7,181,116.8,181,116.9,180.9z"/>
		</g>
		<g>
			<path d="M117.1,177.7c0,0.1,0,0.3,0.1,0.4c0.2-0.5,0.6-0.9,0.6-0.9s-0.2-0.6,0-0.7c0.2-0.1,0.6-0.2,0.8-0.1c-0.1-0.1,0-0.7,0-0.9
				c-0.1,0-0.2,0-0.3,0c-0.2,0-0.4,0.1-0.5,0.1c-0.2,0.1,0,0.7,0,0.7S117,176.9,117.1,177.7z"/>
		</g>
		<g>
			<path d="M118.4,174.3c0.1,0,1,1.3,1.3,1.3c0.3,0,0.6-2.5,0.7-3.1c0.2-1.2,0.9-1.5,1-1.4c0.1,0.1-0.1,2.3,0.4,3.1
				c0.4,0.8,1.6-2.1,1.9-3.1c0.5-1.5,1.1-2.2,1.5-2.5c0.2-0.6,0.4-1,0.3-1.1c-0.1-0.1-1.1,0.4-1.8,2.6c-0.3,1-1.5,3.9-1.9,3.1
				c-0.5-0.9-0.2-3-0.4-3.1c-0.1-0.1-0.8,0.2-1,1.4c-0.1,0.6-0.5,3.1-0.7,3.1c-0.3,0-1.1-1.3-1.3-1.3c-0.1,0-0.1,0.5,0,1
				C118.3,174.3,118.3,174.3,118.4,174.3z"/>
		</g>
	</g>
</g>
</svg>
